<svg width="16" height="9" viewBox="0 0 16 9" fill="none" xmlns="http://www.w3.org/2000/svg">
<path d="M15.1628 0.842794C15.1389 0.786251 15.0989 0.737991 15.0478 0.704036C14.9967 0.67008 14.9367 0.651932 14.8753 0.651856L1.12498 0.651856C1.06347 0.651739 1.00329 0.669781 0.951978 0.70372C0.900671 0.73766 0.860523 0.785989 0.836564 0.842648C0.812606 0.899308 0.805903 0.961778 0.817296 1.02223C0.828689 1.08268 0.857671 1.13843 0.90061 1.18248L7.77561 8.25342C7.80473 8.28337 7.83957 8.30719 7.87805 8.32345C7.91654 8.33971 7.95789 8.34808 7.99967 8.34808C8.04145 8.34808 8.08281 8.33971 8.12129 8.32345C8.15978 8.30719 8.19461 8.28337 8.22373 8.25342L15.0987 1.18217C15.1415 1.13812 15.1704 1.08244 15.1817 1.02209C15.1931 0.961727 15.1864 0.899367 15.1625 0.842794H15.1628Z" fill="#707A8E"/>
</svg>
