<svg width="16" height="17" viewBox="0 0 16 17" fill="none" xmlns="http://www.w3.org/2000/svg">
<g clip-path="url(#clip0_59_2693)">
<path d="M13.656 2.84205C10.5314 -0.28167 5.46601 -0.28092 2.34229 2.84377C-0.781426 5.96846 -0.780676 11.0338 2.34401 14.1575C5.4687 17.2812 10.534 17.2805 13.6577 14.1558C14.4005 13.4128 14.9896 12.5308 15.3915 11.5601C15.7934 10.5894 16.0002 9.54913 16 8.49855C15.9999 7.44798 15.7928 6.40772 15.3906 5.43717C14.9884 4.46663 14.399 3.58481 13.656 2.84205ZM12.1157 11.6437L12.1147 11.6447V11.6421L11.7093 12.0447C11.4516 12.3057 11.1309 12.4959 10.7782 12.5968C10.4255 12.6977 10.0528 12.7059 9.69598 12.6207C8.96491 12.4251 8.26989 12.1136 7.63732 11.6981C7.04962 11.3225 6.50501 10.8834 6.01332 10.3887C5.56093 9.93964 5.15447 9.44653 4.79998 8.91674C4.41224 8.34668 4.10532 7.72567 3.88798 7.07139C3.76582 6.69454 3.75101 6.29111 3.84521 5.90631C3.93941 5.52151 4.1389 5.17055 4.42132 4.89274L4.89598 4.41808C5.02795 4.28552 5.24239 4.28505 5.37492 4.41702L5.37598 4.41808L6.87464 5.91674C7.0072 6.04871 7.00767 6.26314 6.8757 6.39567L6.87464 6.39674L5.99464 7.27674C5.74214 7.52649 5.71039 7.92336 5.91998 8.21008C6.23827 8.64688 6.59048 9.05794 6.97332 9.43942C7.40017 9.86811 7.86421 10.2581 8.35998 10.6048C8.64645 10.8046 9.03482 10.7709 9.28264 10.5248L10.1333 9.66077C10.2653 9.5282 10.4797 9.52774 10.6122 9.65971L10.6133 9.66077L12.1146 11.1648C12.2472 11.2967 12.2477 11.5111 12.1157 11.6437Z" fill="#0048FF"/>
</g>
<defs>
<clipPath id="clip0_59_2693">
<rect width="16" height="16" fill="white" transform="translate(0 0.5)"/>
</clipPath>
</defs>
</svg>
