<svg width="15" height="14" viewBox="0 0 15 14" fill="none" xmlns="http://www.w3.org/2000/svg">
<path d="M7.5 0.125C6.14026 0.125 4.81105 0.528212 3.68046 1.28365C2.54987 2.03908 1.66868 3.11281 1.14833 4.36905C0.627979 5.62529 0.491831 7.00763 0.757104 8.34125C1.02238 9.67486 1.67716 10.8999 2.63864 11.8614C3.60013 12.8228 4.82514 13.4776 6.15876 13.7429C7.49238 14.0082 8.87471 13.872 10.131 13.3517C11.3872 12.8313 12.4609 11.9501 13.2164 10.8195C13.9718 9.68896 14.375 8.35975 14.375 7C14.375 5.17664 13.6507 3.42795 12.3614 2.13864C11.0721 0.849328 9.32337 0.125 7.5 0.125ZM10.625 9.2125L9.7125 10.125L7.5 7.88125L5.2875 10.125L4.40625 9.2125L6.61875 7L4.40625 4.7875L5.2875 3.90625L7.5 6.11875L9.7125 3.90625L10.625 4.7875L8.38125 7L10.625 9.2125Z" fill="black"/>
</svg>
