<svg width="47" height="38" viewBox="0 0 47 38" fill="none" xmlns="http://www.w3.org/2000/svg">
<path d="M46.5 7.09047L43.903 6.37095C43.489 7.86533 42.7288 8.86673 41.5412 9.46122C38.8977 5.96798 34.7844 3.64431 30.0847 3.41848L30.0524 3.41686L25.0106 3.41713L26.6074 5.86719L24.4707 9.14322L26.6076 12.4194L23.9906 16.4317L21.7334 14.9595L23.3901 12.4194L21.2533 9.14322L23.3903 5.86665L21.7939 3.41731L18.516 3.41749C17.8202 3.41749 17.1231 3.46483 16.4342 3.55861C14.8239 1.51843 12.3865 0.324707 9.75131 0.324707H8.22683V7.37433C6.55073 8.8962 5.23511 10.7635 4.37204 12.8428H0.5V24.5754H4.37276C5.68596 27.7288 8.05715 30.3951 11.0421 32.0713V37.6747H19.8648V34.6471H27.9807V37.6502H36.8033V32.0714C43.917 28.2132 46.7157 18.8639 42.9734 11.7475C44.7068 10.7938 45.9128 9.2097 46.5 7.09047ZM15.1947 16.9725L13.2892 18.878L12.0835 17.6723L10.8778 18.878L8.97232 16.9725L10.178 15.7668L8.97232 14.5611L10.8778 12.6556L12.0835 13.8613L13.2892 12.6556L15.1947 14.5611L13.989 15.7668L15.1947 16.9725Z" fill="#0048FF"/>
</svg>
