<svg width="47" height="47" viewBox="0 0 47 47" fill="none" xmlns="http://www.w3.org/2000/svg">
<path d="M40.5512 31.3333L35.9369 37.9628L32.6808 35.2904C32.5977 35.2171 32.5007 35.1613 32.3956 35.1263C32.2905 35.0913 32.1795 35.0778 32.069 35.0867C31.9586 35.0956 31.8511 35.1266 31.753 35.1779C31.6548 35.2293 31.568 35.2999 31.4977 35.3855C31.4274 35.4711 31.3751 35.57 31.3439 35.6763C31.3127 35.7826 31.3033 35.8941 31.3161 36.0041C31.3289 36.1142 31.3638 36.2205 31.4186 36.3167C31.4735 36.413 31.5471 36.4972 31.6352 36.5644L35.5816 39.8041C35.6694 39.8765 35.7713 39.9299 35.8808 39.9609C35.9903 39.992 36.105 40 36.2178 39.9844C36.3305 39.9688 36.4388 39.93 36.5358 39.8704C36.6328 39.8109 36.7164 39.7318 36.7813 39.6383L41.9051 32.2758C42.0301 32.0963 42.0786 31.8744 42.0401 31.6591C42.0015 31.4438 41.8789 31.2526 41.6994 31.1276C41.5199 31.0026 41.298 30.9541 41.0827 30.9927C40.8674 31.0313 40.6762 31.1538 40.5512 31.3333Z" fill="#0048FF"/>
<path d="M36.2808 25.1492C30.3704 25.1492 25.5615 29.958 25.5615 35.8685C25.5615 41.7789 30.3704 46.5878 36.2808 46.5878C42.1913 46.5878 47.0001 41.7789 47.0001 35.8685C47.0001 29.958 42.1913 25.1492 36.2808 25.1492ZM36.2808 44.9386C31.2799 44.9386 27.2106 40.8694 27.2106 35.8685C27.2106 30.8675 31.2799 26.7983 36.2808 26.7983C41.2818 26.7983 45.351 30.8675 45.351 35.8685C45.351 40.8694 41.2818 44.9386 36.2808 44.9386Z" fill="#0048FF"/>
<path d="M22.2632 35.8685C22.0445 35.8685 21.8347 35.7816 21.6801 35.627C21.5255 35.4724 21.4386 35.2626 21.4386 35.0439C21.4386 34.8252 21.5255 34.6155 21.6801 34.4609C21.8347 34.3062 22.0445 34.2194 22.2632 34.2194H23.2023C23.8241 29.2704 27.1932 25.1756 31.7332 23.5001H22.2632C22.0445 23.5001 21.8347 23.4132 21.6801 23.2586C21.5255 23.1039 21.4386 22.8942 21.4386 22.6755C21.4386 22.4568 21.5255 22.2471 21.6801 22.0925C21.8347 21.9378 22.0445 21.851 22.2632 21.851H37.1053C37.324 21.851 37.5337 21.9378 37.6883 22.0925C37.843 22.2471 37.9298 22.4568 37.9298 22.6755C37.9298 22.7151 37.9125 22.7489 37.9076 22.7868C40.3313 23.0861 42.6234 24.0556 44.5263 25.5862V10.4522C44.5263 4.91611 40.0226 0.412354 34.4865 0.412354H10.0399C4.50375 0.412354 0 4.91611 0 10.4522V34.8988C0 40.4349 4.50375 44.9387 10.0399 44.9387H26.7257C24.4771 42.5714 23.0877 39.3828 23.0877 35.8685H22.2632ZM22.2632 10.3071H37.1053C37.324 10.3071 37.5337 10.394 37.6883 10.5486C37.843 10.7032 37.9298 10.913 37.9298 11.1317C37.9298 11.3503 37.843 11.5601 37.6883 11.7147C37.5337 11.8693 37.324 11.9562 37.1053 11.9562H22.2632C22.0445 11.9562 21.8347 11.8693 21.6801 11.7147C21.5255 11.5601 21.4386 11.3503 21.4386 11.1317C21.4386 10.913 21.5255 10.7032 21.6801 10.5486C21.8347 10.394 22.0445 10.3071 22.2632 10.3071ZM17.0585 31.4571L11.4045 38.0528C11.2684 38.2122 11.0767 38.3137 10.8683 38.3367C10.66 38.3597 10.4507 38.3024 10.2831 38.1764L6.51404 35.349C6.33919 35.2178 6.22364 35.0225 6.19279 34.8061C6.16194 34.5897 6.21832 34.3699 6.34953 34.195C6.48075 34.0202 6.67604 33.9047 6.89245 33.8738C7.10887 33.843 7.32867 33.8993 7.50351 34.0305L10.655 36.3937L15.8068 30.3852C15.8772 30.303 15.9631 30.2355 16.0596 30.1865C16.1561 30.1375 16.2612 30.1079 16.3691 30.0996C16.477 30.0913 16.5855 30.1042 16.6884 30.1378C16.7912 30.1714 16.8865 30.2249 16.9686 30.2953C17.0508 30.3657 17.1184 30.4515 17.1674 30.548C17.2163 30.6445 17.2459 30.7497 17.2542 30.8576C17.2626 30.9655 17.2496 31.0739 17.216 31.1768C17.1824 31.2797 17.1289 31.3749 17.0585 31.4571ZM17.0585 19.0887L11.4045 25.6852C11.2684 25.8446 11.0767 25.9461 10.8683 25.9691C10.66 25.9921 10.4507 25.9348 10.2831 25.8088L6.51404 22.9814C6.33919 22.8502 6.22364 22.6549 6.19279 22.4385C6.17751 22.3314 6.18349 22.2222 6.21039 22.1174C6.23728 22.0125 6.28457 21.914 6.34953 21.8274C6.41451 21.7409 6.49589 21.6679 6.58904 21.6128C6.6822 21.5577 6.7853 21.5215 6.89245 21.5062C7.10887 21.4754 7.32867 21.5317 7.50351 21.663L10.655 24.0261L15.8068 18.0167C15.8772 17.9346 15.9631 17.867 16.0596 17.818C16.1561 17.769 16.2612 17.7395 16.3691 17.7312C16.477 17.7228 16.5855 17.7358 16.6884 17.7694C16.7912 17.803 16.8865 17.8565 16.9686 17.9269C17.0508 17.9972 17.1184 18.0831 17.1674 18.1796C17.2163 18.2761 17.2459 18.3813 17.2542 18.4892C17.2626 18.597 17.2496 18.7055 17.216 18.8084C17.1824 18.9112 17.1289 19.0065 17.0585 19.0887ZM17.0585 7.54481L11.4045 14.1413C11.2684 14.3007 11.0767 14.4023 10.8683 14.4253C10.66 14.4482 10.4507 14.3909 10.2831 14.265L6.51404 11.4376C6.42746 11.3726 6.35454 11.2912 6.29942 11.1981C6.2443 11.1049 6.20806 11.0018 6.19279 10.8946C6.17751 10.7875 6.18349 10.6784 6.21039 10.5735C6.23728 10.4687 6.28457 10.3702 6.34953 10.2836C6.48075 10.1088 6.67604 9.99319 6.89245 9.96235C6.99961 9.94707 7.10873 9.95305 7.21357 9.97994C7.31842 10.0068 7.41694 10.0541 7.50351 10.1191L10.655 12.4823L15.8068 6.47288C15.8772 6.39069 15.9631 6.32317 16.0596 6.27418C16.1561 6.22518 16.2612 6.19567 16.3691 6.18732C16.477 6.17898 16.5855 6.19196 16.6884 6.22554C16.7912 6.25911 16.8865 6.31262 16.9686 6.383C17.0508 6.45339 17.1184 6.53927 17.1674 6.63575C17.2163 6.73222 17.2459 6.83741 17.2542 6.94529C17.2626 7.05318 17.2496 7.16165 17.216 7.26451C17.1824 7.36738 17.1289 7.46262 17.0585 7.54481Z" fill="#0048FF"/>
</svg>
