<svg width="58" height="58" viewBox="0 0 58 58" fill="none" xmlns="http://www.w3.org/2000/svg">
<g clip-path="url(#clip0_76_13881)">
<path d="M46.5692 17.2653L50.042 13.7925L46.6248 10.3741L42.9098 14.0892C39.516 11.6841 35.5556 10.2018 31.4167 9.7875V4.83333H36.2501V0H21.7501V4.83333H26.5834V9.7875C22.4445 10.2018 18.4841 11.6841 15.0903 14.0892L11.3753 10.3741L7.95814 13.7925L11.4309 17.2653C8.18928 20.6974 6.02394 25.0039 5.20225 29.6528C4.38056 34.3017 4.93852 39.0895 6.80723 43.4249C8.67593 47.7603 11.7735 51.4534 15.7175 54.0482C19.6615 56.6429 24.2791 58.0257 29.0001 58.0257C33.721 58.0257 38.3386 56.6429 42.2826 54.0482C46.2266 51.4534 49.3242 47.7603 51.1929 43.4249C53.0616 39.0895 53.6195 34.3017 52.7979 29.6528C51.9762 25.0039 49.8108 20.6974 46.5692 17.2653ZM29.0001 53.1667C25.1763 53.1667 21.4384 52.0328 18.259 49.9084C15.0797 47.784 12.6017 44.7646 11.1384 41.2319C9.67509 37.6992 9.29222 33.8119 10.0382 30.0616C10.7842 26.3113 12.6255 22.8664 15.3293 20.1626C18.0331 17.4588 21.478 15.6175 25.2283 14.8715C28.9786 14.1255 32.8659 14.5084 36.3986 15.9717C39.9313 17.435 42.9508 19.913 45.0751 23.0923C47.1995 26.2717 48.3334 30.0096 48.3334 33.8333C48.3276 38.9591 46.2889 43.8732 42.6644 47.4977C39.04 51.1222 34.1258 53.1609 29.0001 53.1667Z" fill="#0048FF"/>
<path d="M29 19.3333V33.8333H14.5C14.5 36.7011 15.3504 39.5045 16.9437 41.889C18.537 44.2735 20.8016 46.132 23.4511 47.2295C26.1006 48.327 29.0161 48.6141 31.8288 48.0546C34.6415 47.4952 37.2252 46.1142 39.253 44.0863C41.2809 42.0584 42.6619 39.4748 43.2214 36.6621C43.7809 33.8493 43.4937 30.9339 42.3963 28.2843C41.2988 25.6348 39.4403 23.3702 37.0558 21.7769C34.6713 20.1837 31.8678 19.3333 29 19.3333Z" fill="#0048FF"/>
</g>
<defs>
<clipPath id="clip0_76_13881">
<rect width="58" height="58" fill="white"/>
</clipPath>
</defs>
</svg>
