<svg width="25" height="24" viewBox="0 0 25 24" fill="none" xmlns="http://www.w3.org/2000/svg">
<path d="M14.7581 7.50298L6.50954 15.7522C6.468 15.7939 6.4384 15.8459 6.42382 15.9029L5.50951 19.5726C5.49606 19.6271 5.49689 19.6841 5.5119 19.7381C5.52692 19.7922 5.55562 19.8414 5.59523 19.8812C5.65608 19.9418 5.73845 19.9759 5.82436 19.976C5.85086 19.9759 5.87725 19.9727 5.90295 19.9662L9.5727 19.0518C9.62976 19.0374 9.68185 19.0079 9.72338 18.9662L17.9727 10.7175L14.7581 7.50298ZM20.0163 6.37821L19.0981 5.46003C18.4844 4.84635 17.4148 4.84696 16.8018 5.46003L15.6771 6.58481L18.8915 9.79923L20.0163 8.67448C20.3228 8.36807 20.4917 7.9602 20.4917 7.52642C20.4917 7.09264 20.3228 6.68477 20.0163 6.37821Z" fill="#707A8E"/>
</svg>
