<svg width="24" height="24" viewBox="0 0 24 24" fill="none" xmlns="http://www.w3.org/2000/svg">
<rect x="0.5" y="0.5" width="23" height="23" rx="3.5" stroke="#0048FF"/>
<path d="M10.4714 16.7472C10.4096 16.8094 10.3362 16.8587 10.2553 16.8923C10.1744 16.9259 10.0876 16.9433 10 16.9433C9.91244 16.9433 9.8257 16.9259 9.74481 16.8923C9.66392 16.8587 9.59048 16.8094 9.52871 16.7472L5.76471 12.9826C5.57724 12.795 5.47192 12.5407 5.47192 12.2756C5.47192 12.0104 5.57724 11.7561 5.76471 11.5686L6.23604 11.0972C6.42357 10.9098 6.67788 10.8044 6.94304 10.8044C7.20821 10.8044 7.46252 10.9098 7.65004 11.0972L10 13.4472L16.35 7.09723C16.5376 6.90976 16.7919 6.80444 17.057 6.80444C17.3222 6.80444 17.5765 6.90976 17.764 7.09723L18.2354 7.56856C18.4228 7.75609 18.5282 8.0104 18.5282 8.27556C18.5282 8.54073 18.4228 8.79504 18.2354 8.98256L10.4714 16.7472Z" fill="#0048FF"/>
</svg>
