<svg width="14" height="11" viewBox="0 0 14 11" fill="none" xmlns="http://www.w3.org/2000/svg">
<path d="M5.49945 9.94279C5.43768 10.0049 5.36424 10.0542 5.28335 10.0879C5.20247 10.1215 5.11573 10.1388 5.02812 10.1388C4.94051 10.1388 4.85377 10.1215 4.77288 10.0879C4.692 10.0542 4.61856 10.0049 4.55679 9.94279L0.792786 6.17812C0.605315 5.99059 0.5 5.73628 0.5 5.47112C0.5 5.20596 0.605315 4.95165 0.792786 4.76412L1.26412 4.29279C1.45165 4.10532 1.70596 4 1.97112 4C2.23628 4 2.49059 4.10532 2.67812 4.29279L5.02812 6.64279L11.3781 0.292786C11.5656 0.105315 11.82 0 12.0851 0C12.3503 0 12.6046 0.105315 12.7921 0.292786L13.2635 0.76412C13.4509 0.951648 13.5562 1.20596 13.5562 1.47112C13.5562 1.73628 13.4509 1.99059 13.2635 2.17812L5.49945 9.94279Z" fill="#0048FF"/>
</svg>
