<svg width="24" height="24" viewBox="0 0 24 24" fill="none" xmlns="http://www.w3.org/2000/svg">
<path d="M13.6376 11.9903L20.639 4.98876C21.0946 4.53333 21.0946 3.79694 20.639 3.34157C20.1836 2.88614 19.4472 2.88614 18.9918 3.34157L11.9902 10.343L4.98892 3.34157C4.53327 2.88614 3.79716 2.88614 3.34173 3.34157C2.88609 3.797 2.88609 4.53333 3.34173 4.98876L10.343 11.9903L3.34179 18.9917C2.88614 19.4472 2.88614 20.1836 3.34179 20.6389C3.44982 20.7473 3.57819 20.8332 3.71953 20.8918C3.86087 20.9503 4.01239 20.9804 4.16538 20.9802C4.46354 20.9802 4.76181 20.8661 4.98897 20.6389L11.9902 13.6375L18.9918 20.6389C19.0998 20.7472 19.2282 20.8332 19.3695 20.8917C19.5109 20.9503 19.6624 20.9804 19.8154 20.9802C20.1135 20.9802 20.4118 20.8661 20.639 20.6389C21.0946 20.1835 21.0946 19.4472 20.639 18.9917L13.6376 11.9903Z" fill="#707A8E"/>
</svg>
