<svg width="16" height="19" viewBox="0 0 16 19" fill="none" xmlns="http://www.w3.org/2000/svg">
<path d="M14.4999 16.1008H1.50564C1.10878 16.1008 0.786133 16.426 0.786133 16.8203V17.7805C0.786133 18.1774 1.11133 18.5 1.50564 18.5H14.4948C14.8917 18.5 15.2143 18.1748 15.2143 17.7805V16.8203C15.222 16.4209 14.8968 16.1008 14.4999 16.1008ZM7.49965 14.8129C7.64049 14.9538 7.82484 15.0255 8.00662 15.0255C8.10101 15.0256 8.19447 15.0068 8.28152 14.9703C8.36858 14.9338 8.44747 14.8803 8.51359 14.8129L13.4348 9.89175C13.7139 9.61268 13.7139 9.15692 13.4348 8.87269L12.7537 8.19161C12.4746 7.9125 12.0188 7.9125 11.7346 8.19161L9.20491 10.7239V1.2195C9.20491 0.822617 8.87971 0.5 8.48544 0.5H7.52525C7.1284 0.5 6.80575 0.82004 6.80575 1.2195V10.7265L4.27347 8.19415C3.99437 7.91508 3.53606 7.91508 3.25441 8.19415L2.57333 8.87523C2.29426 9.1543 2.29426 9.61264 2.57333 9.89429L7.49965 14.8129Z" fill="white"/>
</svg>
