<svg width="17" height="19" viewBox="0 0 17 19" fill="none" xmlns="http://www.w3.org/2000/svg">
<path fill-rule="evenodd" clip-rule="evenodd" d="M8.49659 15.7328V16.6654C8.49659 17.4132 8.86932 18.0589 9.517 18.4328C9.82862 18.6127 10.1764 18.713 10.537 18.7132C10.8979 18.7134 11.2456 18.6128 11.5575 18.4328L15.7042 16.0386C16.352 15.6647 16.7246 15.0192 16.7246 14.2712V2.04083C16.7246 0.915447 15.8091 0 14.6838 0H5.5512C4.42578 0 3.51022 0.915374 3.51022 2.04083V4.61897C3.51022 4.98881 3.81051 5.2891 4.18035 5.2891C4.5503 5.2891 4.85034 4.98885 4.85034 4.61897V2.04083C4.85034 1.6544 5.16477 1.33997 5.5512 1.33997H13.5537L9.517 3.67096C8.86954 4.04486 8.49659 4.69032 8.49659 5.438V14.3927H5.5512C5.1648 14.3927 4.85034 14.0784 4.85034 13.6919V11.4319C4.85034 11.0618 4.55049 10.7618 4.18035 10.7618C3.81036 10.7618 3.51022 11.0619 3.51022 11.4319V13.6919C3.51022 14.8174 4.42578 15.7328 5.5512 15.7328H8.49659ZM2.28751 8.53635L3.02547 9.27431C3.28713 9.53597 3.28705 9.96016 3.02547 10.2218C2.9633 10.2841 2.88944 10.3335 2.80813 10.3671C2.72683 10.4008 2.63968 10.418 2.55169 10.4179C2.46366 10.4181 2.37647 10.4008 2.29513 10.3672C2.21379 10.3336 2.1399 10.2842 2.07772 10.2218L0.196201 8.34001C-0.065382 8.07839 -0.0654182 7.65442 0.196201 7.3928L2.07772 5.51125C2.33941 5.24956 2.76363 5.24967 3.02544 5.51121C3.28702 5.77261 3.28694 6.19698 3.02544 6.45846L2.28751 7.19624H7.23115C7.60135 7.19624 7.90113 7.49623 7.90113 7.8664C7.90113 8.23657 7.60132 8.53639 7.23115 8.53639H2.28751V8.53635Z" fill="white"/>
</svg>
