<svg width="15" height="13" viewBox="0 0 15 13" fill="none" xmlns="http://www.w3.org/2000/svg">
<path d="M9.36221 6.62636L10.2142 5.7744C10.2762 6.00632 10.3125 6.24878 10.3125 6.50003C10.3125 8.05089 9.05085 9.31253 7.49999 9.31253C7.24874 9.31253 7.00628 9.2762 6.77436 9.21421L7.62632 8.36226C8.07663 8.33167 8.50061 8.13896 8.81977 7.81981C9.13892 7.50065 9.33163 7.07667 9.36221 6.62636ZM14.9409 6.27233C14.8833 6.16862 14.0655 4.73577 12.4671 3.52147L11.7849 4.20362C12.9505 5.06062 13.689 6.06011 13.9798 6.50073C13.4242 7.34671 11.2447 10.25 7.49999 10.25C6.93842 10.25 6.41624 10.1782 5.92487 10.0636L5.1546 10.8339C5.86276 11.051 6.64112 11.1875 7.49999 11.1875C12.407 11.1875 14.8398 6.90972 14.9409 6.72772C14.9797 6.65809 15 6.57972 15 6.50003C15 6.42034 14.9797 6.34197 14.9409 6.27233ZM12.9876 1.67519L2.67514 11.9877C2.58362 12.0792 2.46362 12.125 2.34374 12.125C2.22385 12.125 2.10385 12.0792 2.01233 11.9877C1.96878 11.9442 1.93422 11.8925 1.91065 11.8357C1.88708 11.7788 1.87494 11.7178 1.87494 11.6563C1.87494 11.5947 1.88708 11.5338 1.91065 11.4769C1.93422 11.42 1.96878 11.3684 2.01233 11.3249L3.32436 10.0128C1.20327 8.73233 0.125495 6.84737 0.0590492 6.72772C0.0203233 6.65806 0 6.57967 0 6.49997C0 6.42027 0.0203233 6.34188 0.0590492 6.27222C0.160182 6.09034 2.59299 1.81253 7.49999 1.81253C8.76878 1.81253 9.86776 2.10198 10.8073 2.52995L12.3248 1.01237C12.508 0.829209 12.8046 0.829209 12.9876 1.01237C13.1707 1.19554 13.1708 1.49214 12.9876 1.67519ZM4.02339 9.31382L5.21014 8.12706C4.88237 7.66722 4.68749 7.10647 4.68749 6.50003C4.68749 4.94917 5.94913 3.68753 7.49999 3.68753C8.10643 3.68753 8.66717 3.88241 9.12702 4.21007L10.0867 3.25042C9.32846 2.94679 8.4669 2.75003 7.49999 2.75003C3.75526 2.75003 1.57581 5.65335 1.02034 6.49933C1.37307 7.03394 2.38698 8.38722 4.02339 9.31382ZM5.89065 7.44643L8.44639 4.89069C8.1676 4.72604 7.84663 4.62503 7.49999 4.62503C6.46616 4.62503 5.62499 5.4662 5.62499 6.50003C5.62499 6.84667 5.726 7.16765 5.89065 7.44643Z" fill="#707A8E"/>
</svg>
