<svg width="16" height="15" viewBox="0 0 16 15" fill="none" xmlns="http://www.w3.org/2000/svg">
<path d="M14.8681 10.9485L9.50448 1.0888C8.64272 -0.361971 6.54202 -0.363898 5.67911 1.0888L0.315738 10.9485C-0.565207 12.431 0.501352 14.3082 2.22798 14.3082H12.9554C14.6806 14.3082 15.7491 12.4325 14.8681 10.9485ZM7.59179 12.5289C7.10135 12.5289 6.70213 12.1297 6.70213 11.6392C6.70213 11.1488 7.10135 10.7496 7.59179 10.7496C8.08224 10.7496 8.48146 11.1488 8.48146 11.6392C8.48146 12.1297 8.08224 12.5289 7.59179 12.5289ZM8.48146 8.97025C8.48146 9.46069 8.08224 9.85991 7.59179 9.85991C7.10135 9.85991 6.70213 9.46069 6.70213 8.97025V4.52193C6.70213 4.03149 7.10135 3.63226 7.59179 3.63226C8.08224 3.63226 8.48146 4.03149 8.48146 4.52193V8.97025Z" fill="#336DFF"/>
</svg>
