<svg width="15" height="16" viewBox="0 0 15 16" fill="none" xmlns="http://www.w3.org/2000/svg">
<path d="M14.3183 7.65894H11.591C11.2145 7.65894 10.9092 7.96423 10.9092 8.34076C10.9092 8.71728 11.2145 9.02258 11.591 9.02258H14.3183C14.6948 9.02258 15.0001 8.71728 15.0001 8.34076C15.0001 7.96423 14.6949 7.65894 14.3183 7.65894Z" fill="#2D50A7"/>
<path d="M3.40911 7.65894H0.681821C0.305297 7.65894 0 7.96423 0 8.34076C0 8.71728 0.305297 9.02258 0.681821 9.02258H3.40911C3.78563 9.02258 4.09093 8.71728 4.09093 8.34076C4.09093 7.96423 3.78563 7.65894 3.40911 7.65894Z" fill="#73A1FB"/>
<path d="M11.8392 3.0376L9.91064 4.96613C9.64437 5.23233 9.64437 5.66405 9.91064 5.93033C9.97387 5.99375 10.049 6.04404 10.1317 6.07832C10.2145 6.11261 10.3032 6.1302 10.3927 6.13008C10.4823 6.13022 10.571 6.11264 10.6537 6.07836C10.7365 6.04408 10.8116 5.99377 10.8748 5.93033L12.8034 4.00179C13.0696 3.73559 13.0696 3.30387 12.8034 3.0376C12.5372 2.77132 12.1055 2.77132 11.8392 3.0376Z" fill="#355EC9"/>
<path d="M7.50011 12.4318C7.12358 12.4318 6.81829 12.7371 6.81829 13.1136V14.4773C6.81829 14.8538 7.12358 15.1591 7.50011 15.1591C7.87663 15.1591 8.18193 14.8538 8.18193 14.4773V13.1136C8.18193 12.7371 7.87663 12.4318 7.50011 12.4318ZM4.12524 10.7515L2.19678 12.68C2.13346 12.7433 2.08324 12.8185 2.04897 12.9012C2.01471 12.9839 1.99707 13.0726 1.99707 13.1621C1.99707 13.2516 2.01471 13.3403 2.04897 13.423C2.08324 13.5057 2.13346 13.5809 2.19678 13.6442C2.26002 13.7076 2.33518 13.7579 2.41792 13.7922C2.50066 13.8264 2.58936 13.844 2.67891 13.8439C2.76846 13.844 2.85715 13.8264 2.93988 13.7922C3.02261 13.7579 3.09775 13.7076 3.16098 13.6442L5.08944 11.7157C5.15275 11.6524 5.20298 11.5772 5.23724 11.4945C5.27151 11.4118 5.28915 11.3231 5.28915 11.2336C5.28915 11.144 5.27151 11.0554 5.23724 10.9726C5.20298 10.8899 5.15275 10.8148 5.08944 10.7515C4.82324 10.4852 4.39152 10.4852 4.12524 10.7515Z" fill="#C4D9FD"/>
<path d="M7.50018 0.84082C7.12366 0.84082 6.81836 1.14612 6.81836 1.52264V4.24993C6.81836 4.62645 7.12366 4.93175 7.50018 4.93175C7.8767 4.93175 8.182 4.62645 8.182 4.24993V1.52264C8.182 1.14612 7.8767 0.84082 7.50018 0.84082Z" fill="#3D6DEB"/>
<path d="M3.16098 3.0376C2.89477 2.77132 2.46305 2.77132 2.19678 3.0376C2.13346 3.1009 2.08324 3.17606 2.04897 3.25878C2.01471 3.3415 1.99707 3.43016 1.99707 3.51969C1.99707 3.60923 2.01471 3.69789 2.04897 3.78061C2.08324 3.86333 2.13346 3.93849 2.19678 4.00179L4.12524 5.93033C4.18848 5.99376 4.26362 6.04406 4.34637 6.07834C4.42911 6.11262 4.51781 6.13021 4.60738 6.13008C4.69693 6.1302 4.78562 6.11262 4.86835 6.07834C4.95108 6.04405 5.02622 5.99375 5.08944 5.93033C5.35571 5.66412 5.35571 5.2324 5.08944 4.96613L3.16098 3.0376Z" fill="#5286FA"/>
</svg>
