<svg width="16" height="17" viewBox="0 0 16 17" fill="none" xmlns="http://www.w3.org/2000/svg">
<path fill-rule="evenodd" clip-rule="evenodd" d="M8 16.5C3.58243 16.5 0 12.9176 0 8.5C0 4.08243 3.58243 0.5 8 0.5C12.4176 0.5 16 4.08243 16 8.5C16 12.9176 12.4176 16.5 8 16.5ZM8 3.29647C10.1885 3.29647 11.9625 5.07052 11.9625 7.25899C11.9625 9.4474 8 13.7035 8 13.7035C8 13.7035 4.03748 9.4474 4.03748 7.25899C4.03748 5.07052 5.81153 3.29647 8 3.29647ZM8 5.68463C8.82973 5.68463 9.50261 6.35751 9.50261 7.18731C9.50261 8.01704 8.82973 8.68992 8 8.68992C7.17027 8.68992 6.49739 8.01704 6.49739 7.18731C6.49739 6.35751 7.17027 5.68463 8 5.68463Z" fill="#0048FF"/>
</svg>
