<svg width="90" height="49" viewBox="0 0 90 49" fill="none" xmlns="http://www.w3.org/2000/svg">
<g clip-path="url(#clip0_17_2592)">
<path fill-rule="evenodd" clip-rule="evenodd" d="M0.5 0H23.7161L10.1758 35.6333H0.5V0Z" fill="#0048FF"/>
<path fill-rule="evenodd" clip-rule="evenodd" d="M23.7158 0H46.9319L33.3916 35.6333H23.7158V0Z" fill="#0048FF"/>
<path fill-rule="evenodd" clip-rule="evenodd" d="M66.2835 35.6333H43.0674L56.6077 0H66.2835V35.6333Z" fill="#0048FF"/>
<path fill-rule="evenodd" clip-rule="evenodd" d="M89.4993 35.6333H66.2832L79.8236 0H89.4993V35.6333Z" fill="#0048FF"/>
<path d="M2.83231 48.8121H0.5V40.0358H8.44308V48.8121H6.11045V42.1043H2.83231V48.8121ZM11.683 48.8121H9.28742L12.7547 40.0358H15.2762L18.7435 48.8121H16.3479L15.8437 47.4331H12.1872L11.683 48.8121ZM13.7886 43.0197L12.8809 45.5523H15.1503L14.2424 43.0197C14.1415 42.7354 14.0657 42.4387 14.0153 42.1296C13.9649 42.4387 13.8891 42.7354 13.7882 43.0197H13.7886ZM19.5882 40.0358H23.0805C25.6441 40.0358 26.9259 41.0386 26.9259 43.0449C26.9259 45.0343 25.6441 46.0371 23.0805 46.054H21.9205V48.8124H19.5882V40.0361V40.0358ZM23.1939 44.0477C24.0848 44.0477 24.5303 43.7133 24.5303 43.0449C24.5303 42.3761 24.0848 42.0417 23.1939 42.0417H21.9205V44.0477H23.1939ZM32.5363 46.8061C32.158 47.6084 31.7295 48.175 31.2504 48.5049C30.7712 48.8351 30.2123 49.0002 29.5735 49.0002C29.1869 49.0002 28.7164 48.9207 28.1614 48.762V46.8438C28.4723 46.9607 28.8127 47.0195 29.1827 47.0195C29.7711 47.0195 30.1536 46.8189 30.3299 46.4178L30.4686 46.1169L27.0267 40.0361H29.6114L31.5529 44.0356L33.1414 40.0361H35.7261L32.5363 46.8065V46.8061ZM44.098 40.0358H46.3044V48.8121H43.9717V44.148L42.0804 47.0316H40.744L38.8527 44.1355V48.8121H36.5204V40.0358H38.7268L41.4124 44.148L44.098 40.0358ZM47.9686 40.0358H54.3229V42.0417H50.301V43.3834H53.9446V45.3769H50.301V46.8061H54.3987V48.8121H47.9686V40.0358ZM55.0796 40.0358H62.3922V42.1043H59.9083V48.8121H57.5757V42.1043H55.0793V40.0358H55.0796ZM63.3881 40.0358H66.8805C69.444 40.0358 70.7258 41.0386 70.7258 43.0449C70.7258 45.0343 69.444 46.0371 66.8805 46.054H65.7205V48.8124H63.3881V40.0361V40.0358ZM66.9939 44.0477C67.8848 44.0477 68.3302 43.7133 68.3302 43.0449C68.3302 42.3761 67.8848 42.0417 66.9939 42.0417H65.7205V44.0477H66.9939ZM72.6297 47.6838C71.8059 46.8061 71.3942 45.7196 71.3942 44.4239C71.3942 43.1286 71.8059 42.0417 72.6297 41.1641C73.4535 40.2865 74.6177 39.8477 76.1221 39.8477C77.6267 39.8477 78.7906 40.2865 79.6144 41.1641C80.4382 42.0417 80.8499 43.1282 80.8499 44.4239C80.8499 45.7196 80.4382 46.8061 79.6144 47.6838C78.7906 48.5614 77.6264 49.0002 76.1221 49.0002C74.6174 49.0002 73.4535 48.5614 72.6297 47.6838ZM77.8432 46.1917C78.2507 45.7404 78.4547 45.1511 78.4547 44.4239C78.4547 43.6967 78.2507 43.1075 77.8432 42.6562C77.4356 42.2049 76.8617 41.9791 76.1221 41.9791C75.3824 41.9791 74.8088 42.2049 74.4012 42.6562C73.9937 43.1075 73.7897 43.6967 73.7897 44.4239C73.7897 45.1511 73.9937 45.7404 74.4012 46.1917C74.8088 46.6429 75.3827 46.8687 76.1221 46.8687C76.8617 46.8687 77.4353 46.6429 77.8432 46.1917ZM82.0732 40.0358H86.0573C87.0491 40.0358 87.8118 40.2197 88.3456 40.5873C88.8794 40.9549 89.1463 41.5109 89.1463 42.2548C89.1463 43.2161 88.7092 43.8513 87.835 44.1605C88.9446 44.4865 89.4992 45.2096 89.4992 46.3293C89.4992 46.8058 89.3942 47.2133 89.1842 47.5519C88.9741 47.8904 88.6861 48.1475 88.3206 48.3228C87.9551 48.4985 87.5768 48.6237 87.1859 48.6991C86.795 48.7744 86.3685 48.8118 85.9064 48.8118H82.0736V40.0354L82.0732 40.0358ZM85.9818 46.9939C86.7636 46.9939 87.1544 46.6889 87.1544 46.0786C87.1544 45.4686 86.7636 45.1633 85.9818 45.1633H84.3933V46.9939H85.9818ZM86.5554 43.264C86.7276 43.1177 86.814 42.9191 86.814 42.6683C86.814 42.4176 86.7279 42.219 86.5554 42.0727C86.383 41.9264 86.1456 41.8533 85.8431 41.8533H84.4059V43.4706L85.8431 43.4831C86.1456 43.4831 86.383 43.4099 86.5554 43.2637V43.264Z" fill="#0048FF"/>
</g>
<defs>
<clipPath id="clip0_17_2592">
<rect width="89" height="49" fill="white" transform="translate(0.5)"/>
</clipPath>
</defs>
</svg>
