<svg width="57" height="36" viewBox="0 0 57 36" fill="none" xmlns="http://www.w3.org/2000/svg">
<path d="M53.5225 0H3.49182C1.83844 0 0.5 1.37109 0.5 3.05803V32.942C0.5 34.6289 1.83845 36 3.48466 36H53.5153C55.1615 36 56.5 34.6289 56.5 32.942V3.05803C56.5071 1.37109 55.1687 0 53.5225 0ZM21.3354 24.9452H17.0409V16.7617C17.0409 16.6038 16.9121 16.4746 16.7546 16.4746C16.6114 16.4746 16.4969 16.5751 16.4755 16.7115L13.9632 24.9452H10.8783L8.37321 16.7043C8.35173 16.5751 8.23721 16.4746 8.09406 16.4746C7.9366 16.4746 7.80777 16.6038 7.80777 16.7617V24.9452H3.51329V10.8754H7.19938H8.30163C9.08895 10.8754 9.91922 11.4927 10.1483 12.2465L12.2382 19.1019C12.3456 19.4465 12.5102 19.4393 12.6176 19.1019L14.7076 12.2465C14.9366 11.4855 15.7669 10.8754 16.5542 10.8754H17.6493H21.3354V24.9452ZM37.2965 24.9452H33.002V16.5823C32.9949 16.4459 32.8875 16.331 32.7444 16.331C32.6442 16.331 32.5654 16.3813 32.5225 16.4674V16.4746C32.5225 16.4818 32.5153 16.4889 32.5153 16.4961L29.0082 24.0407C28.7863 24.5288 28.1851 24.9236 27.6411 24.9523H23.3466V10.8826H27.6411V19.066C27.6411 19.2239 27.7699 19.3531 27.9274 19.3531C28.0276 19.3531 28.1135 19.3029 28.1636 19.2311C28.1779 19.2024 28.1922 19.1809 28.1994 19.145L31.6135 11.7942C31.8425 11.2989 32.4581 10.9041 33.002 10.8826H37.2965V24.9452ZM48.6053 20.4227H43.7382V25.0169H39.4437V17.2642H53.0501C52.3916 19.0947 50.6523 20.4084 48.6053 20.4227ZM53.229 16.5464C53.229 16.5464 45.7709 16.5464 45.7638 16.5464C42.1135 16.5464 39.1217 14.0411 38.8711 10.8754H48.591C51.2034 10.8969 53.3149 13.0217 53.3149 15.6491C53.3149 15.9577 53.2863 16.2592 53.229 16.5464Z" fill="white"/>
</svg>
