<svg width="56" height="36" viewBox="0 0 56 36" fill="none" xmlns="http://www.w3.org/2000/svg">
<path d="M53.0225 0H2.99182C1.33844 0 0 1.37109 0 3.05803V32.942C0 34.6289 1.33845 36 2.98466 36H53.0153C54.6615 36 56 34.6289 56 32.942V3.05803C56.0071 1.37109 54.6687 0 53.0225 0ZM20.8354 24.9452H16.5409V16.7617C16.5409 16.6038 16.4121 16.4746 16.2546 16.4746C16.1114 16.4746 15.9969 16.5751 15.9755 16.7115L13.4632 24.9452H10.3783L7.87321 16.7043C7.85173 16.5751 7.73721 16.4746 7.59406 16.4746C7.4366 16.4746 7.30777 16.6038 7.30777 16.7617V24.9452H3.01329V10.8754H6.69938H7.80163C8.58895 10.8754 9.41922 11.4927 9.64826 12.2465L11.7382 19.1019C11.8456 19.4465 12.0102 19.4393 12.1176 19.1019L14.2076 12.2465C14.4366 11.4855 15.2669 10.8754 16.0542 10.8754H17.1493H20.8354V24.9452ZM36.7965 24.9452H32.502V16.5823C32.4949 16.4459 32.3875 16.331 32.2444 16.331C32.1442 16.331 32.0654 16.3813 32.0225 16.4674V16.4746C32.0225 16.4818 32.0153 16.4889 32.0153 16.4961L28.5082 24.0407C28.2863 24.5288 27.6851 24.9236 27.1411 24.9523H22.8466V10.8826H27.1411V19.066C27.1411 19.2239 27.2699 19.3531 27.4274 19.3531C27.5276 19.3531 27.6135 19.3029 27.6636 19.2311C27.6779 19.2024 27.6922 19.1809 27.6994 19.145L31.1135 11.7942C31.3425 11.2989 31.9581 10.9041 32.502 10.8826H36.7965V24.9452ZM48.1053 20.4227H43.2382V25.0169H38.9437V17.2642H52.5501C51.8916 19.0947 50.1523 20.4084 48.1053 20.4227ZM52.729 16.5464C52.729 16.5464 45.2709 16.5464 45.2638 16.5464C41.6135 16.5464 38.6217 14.0411 38.3711 10.8754H48.091C50.7034 10.8969 52.8149 13.0217 52.8149 15.6491C52.8149 15.9577 52.7863 16.2592 52.729 16.5464Z" fill="#0048FF"/>
</svg>
