<svg width="7" height="12" viewBox="0 0 7 12" fill="none" xmlns="http://www.w3.org/2000/svg">
<path d="M1.33285 11.8334C1.13814 11.8337 0.949443 11.7659 0.799516 11.6417C0.629094 11.5004 0.521893 11.2971 0.501569 11.0767C0.481245 10.8562 0.549467 10.6368 0.691183 10.4667L4.42452 6.00004L0.824516 1.52504C0.684707 1.35287 0.619292 1.13208 0.642753 0.91155C0.666214 0.691015 0.776616 0.48893 0.949516 0.350035C1.12382 0.196669 1.35421 0.122973 1.58516 0.146701C1.81612 0.170429 2.0267 0.289431 2.16618 0.475035L6.19118 5.47504C6.44395 5.78254 6.44395 6.22587 6.19118 6.53337L2.02452 11.5334C1.85496 11.7379 1.59805 11.8493 1.33285 11.8334Z" fill="#212B36"/>
</svg>
