<svg width="22" height="19" viewBox="0 0 22 19" fill="none" xmlns="http://www.w3.org/2000/svg">
<path d="M21.5 15V16.875C21.5 17.9093 20.6585 18.75 19.625 18.75H3.5C1.8455 18.75 0.5 17.4045 0.5 15.75V3C0.5 1.3455 1.8455 0 3.5 0H17.375C17.5227 -3.11333e-09 17.669 0.0290989 17.8055 0.0856354C17.942 0.142172 18.066 0.225039 18.1705 0.329505C18.275 0.433971 18.3578 0.55799 18.4144 0.694481C18.4709 0.830972 18.5 0.977263 18.5 1.125C18.5 1.27274 18.4709 1.41903 18.4144 1.55552C18.3578 1.69201 18.275 1.81603 18.1705 1.9205C18.066 2.02496 17.942 2.10783 17.8055 2.16436C17.669 2.2209 17.5227 2.25 17.375 2.25H3.5C3.30689 2.25864 3.12455 2.34143 2.99096 2.48114C2.85736 2.62084 2.7828 2.8067 2.7828 3C2.7828 3.1933 2.85736 3.37916 2.99096 3.51886C3.12455 3.65857 3.30689 3.74136 3.5 3.75H19.625C20.6585 3.75 21.5 4.59075 21.5 5.625V7.5H17.75C15.6823 7.5 14 9.18225 14 11.25C14 13.3177 15.6823 15 17.75 15H21.5Z" fill="white" fill-opacity="0.2"/>
<path d="M21.5 9V13.5H17.75C17.1533 13.5 16.581 13.2629 16.159 12.841C15.7371 12.419 15.5 11.8467 15.5 11.25C15.5 10.6533 15.7371 10.081 16.159 9.65901C16.581 9.23705 17.1533 9 17.75 9H21.5Z" fill="white" fill-opacity="0.2"/>
</svg>
