<svg width="20" height="23" viewBox="0 0 20 23" fill="none" xmlns="http://www.w3.org/2000/svg">
<path d="M14.9491 4.5149H18.9463L14.7393 0.382812V4.30533C14.7393 4.42082 14.8333 4.5149 14.9491 4.5149Z" fill="white" fill-opacity="0.2"/>
<path d="M14.9492 5.83305C14.1067 5.83305 13.4212 5.14765 13.4212 4.30513V0H2.45957C1.10331 0 0 1.10331 0 2.45953V20.0405C0 21.3967 1.10331 22.5 2.45957 22.5H16.8764C18.2328 22.5 19.3359 21.3967 19.3359 20.0405V5.83302L14.9492 5.83305ZM13.4424 17.0508H4.95207C4.58803 17.0508 4.29289 16.7556 4.29289 16.3916C4.29289 16.0275 4.58803 15.7324 4.95207 15.7324H13.4424C13.8067 15.7324 14.1016 16.0275 14.1016 16.3916C14.1016 16.7556 13.8067 17.0508 13.4424 17.0508ZM4.29289 13.7549C4.29289 13.3908 4.58803 13.0957 4.95207 13.0957H12.5286C12.8928 13.0957 13.1877 13.3908 13.1877 13.7549C13.1877 14.1189 12.8925 14.4141 12.5286 14.4141H4.95207C4.58803 14.4141 4.29289 14.1189 4.29289 13.7549ZM14.244 11.7773H4.95207C4.58803 11.7773 4.29289 11.4822 4.29289 11.1182C4.29289 10.7541 4.58803 10.459 4.95207 10.459H14.244C14.6081 10.459 14.9032 10.7541 14.9032 11.1182C14.9032 11.4822 14.6081 11.7773 14.244 11.7773Z" fill="white" fill-opacity="0.2"/>
</svg>
