<svg width="72" height="36" viewBox="0 0 72 36" fill="none" xmlns="http://www.w3.org/2000/svg">
<g clip-path="url(#clip0_76_16191)">
<path d="M0 7.83643L4.35959 15.6289V20.3821L0.0051 28.1593L0 7.83643Z" fill="#5B57A2"/>
<path d="M16.7393 12.7926L20.8244 10.2888L29.1847 10.281L16.7393 17.9052V12.7926Z" fill="#D90751"/>
<path d="M16.7159 7.79011L16.7389 18.1071L12.3691 15.4221V0L16.7159 7.79011Z" fill="#FAB718"/>
<path d="M29.1844 10.2813L20.8237 10.2891L16.7159 7.79011L12.3691 0L29.1844 10.2813Z" fill="#ED6F26"/>
<path d="M16.7389 28.2025V23.197L12.3691 20.563L12.3715 36.0004L16.7389 28.2025Z" fill="#63B22F"/>
<path d="M20.814 25.7215L4.3593 15.6289L0 7.83643L29.1668 25.7113L20.814 25.7215Z" fill="#1487C9"/>
<path d="M12.3721 36.0003L16.7389 28.2024L20.8138 25.7213L29.1666 25.7112L12.3721 36.0003Z" fill="#017F36"/>
<path d="M0.00488281 28.1587L12.4048 20.5627L8.23598 18.0049L4.35938 20.3815L0.00488281 28.1587Z" fill="#984995"/>
<path fill-rule="evenodd" clip-rule="evenodd" d="M47.6657 19.2233C50.4791 19.2233 52.5682 17.4983 52.5682 14.8833C52.5682 12.3521 51.0269 10.7088 48.4508 10.7088C47.2619 10.7088 46.2808 11.1271 45.542 11.8493C45.7184 10.3569 46.9804 9.26708 48.37 9.26708C48.6908 9.26708 51.1052 9.26211 51.1052 9.26211L52.4705 6.64941C52.4705 6.64941 49.4393 6.71856 48.0302 6.71856C44.8106 6.77451 42.6359 9.70095 42.6359 13.2552C42.6359 17.3964 44.7569 19.2233 47.6657 19.2233ZM47.6829 13.023C48.7275 13.023 49.4515 13.7093 49.4515 14.883C49.4515 15.9392 48.8082 16.8096 47.6829 16.8119C46.6063 16.8119 45.8822 16.0053 45.8822 14.9009C45.8822 13.727 46.6063 13.023 47.6829 13.023ZM63.4318 10.1073V18.9087H60.289V12.7347H57.2629V18.9087H54.1201V10.1067L63.4318 10.1073ZM38.227 16.4709C39.3356 16.39 40.0777 15.962 40.0777 15.962L41.2408 18.1139C40.4959 18.5923 39.2738 18.9034 38.3878 18.9362C35.2184 18.9945 33.0137 17.0659 33.0137 14.256C33.0137 11.4817 35.3593 9.50706 38.3878 9.50706C39.5878 9.50706 40.6195 9.82897 41.3941 10.4161C41.2311 10.705 41.0095 11.1052 40.7988 11.4881L40.4615 12.1027L40.1546 12.664C40.1546 12.664 39.0386 12.0793 38.1949 12.0793C36.8192 12.0793 35.8172 12.8788 35.8172 14.2736C35.8172 15.7039 36.9526 16.5087 38.227 16.4709ZM35.8181 24.8319C35.7221 24.9544 35.5959 25.047 35.4444 25.1094C35.2888 25.1726 35.1226 25.2049 34.9547 25.204C34.7878 25.2063 34.6219 25.1785 34.4648 25.122C34.3238 25.0707 34.1949 24.9907 34.0862 24.8873C33.979 24.7836 33.8947 24.6584 33.8391 24.5199C33.7787 24.3684 33.7487 24.2064 33.7506 24.0432C33.7506 23.8812 33.7785 23.7312 33.8363 23.5892C33.8918 23.4468 33.9725 23.3246 34.0736 23.222C34.1194 23.1746 34.1694 23.1321 34.223 23.094L34.2558 23.0718C34.2902 23.0492 34.3262 23.0281 34.3633 23.0088L34.4033 22.9888L34.4322 22.9751C34.571 22.915 34.7225 22.8825 34.8891 22.8825C35.0683 22.8825 35.2349 22.905 35.3864 22.9499C35.482 22.978 35.5684 23.0181 35.6458 23.0703C35.6912 23.1011 35.7334 23.1359 35.7725 23.1749L35.5884 23.4869C35.4992 23.406 35.3943 23.3448 35.2802 23.3067C35.1718 23.2719 35.0584 23.2543 34.9446 23.2546C34.8437 23.2546 34.7477 23.2745 34.6544 23.312C34.5625 23.3489 34.4785 23.4031 34.407 23.472C34.3337 23.5422 34.2762 23.6276 34.2377 23.7216C34.1949 23.8186 34.1747 23.9261 34.1747 24.0459C34.1747 24.1681 34.1972 24.2779 34.2401 24.3728C34.2834 24.4701 34.3412 24.5527 34.4144 24.6224C34.4876 24.6924 34.5734 24.7446 34.6718 24.7798C34.712 24.795 34.753 24.807 34.7949 24.8158C34.8559 24.8287 34.9192 24.8349 34.985 24.8349C35.1213 24.8349 35.2452 24.807 35.3511 24.7546C35.4066 24.7276 35.4592 24.6954 35.5081 24.6582C35.5515 24.6251 35.5919 24.5882 35.6288 24.5477L35.8181 24.8319ZM36.3381 25.1516V22.9299H36.737V24.5852L38.0345 22.9299H38.4335V25.1519H38.0345V23.4969L36.737 25.1519L36.3381 25.1516ZM41.0766 24.8319C40.9785 24.9555 40.8496 25.0511 40.7031 25.1094C40.614 25.1454 40.5213 25.1714 40.4268 25.187C40.3563 25.1984 40.2848 25.2043 40.2132 25.204C40.1463 25.2049 40.0795 25.201 40.0134 25.1923C39.9147 25.1794 39.8175 25.156 39.7235 25.122C39.6912 25.1103 39.6596 25.0971 39.6287 25.0824C39.5914 25.0645 39.555 25.0446 39.5199 25.0229C39.4572 24.984 39.3984 24.9385 39.3447 24.8873C39.2373 24.7836 39.1531 24.6584 39.0974 24.5199C39.0372 24.3684 39.007 24.2064 39.009 24.0432C39.009 23.8812 39.0368 23.7312 39.0948 23.5892C39.1506 23.4468 39.2312 23.3246 39.3321 23.222C39.4332 23.1171 39.5543 23.0375 39.6905 22.9751C39.8344 22.9118 39.9903 22.8802 40.1474 22.8825C40.2517 22.8825 40.3515 22.8901 40.4465 22.9053L40.5023 22.915C40.5234 22.9191 40.5444 22.9238 40.565 22.9288L40.6018 22.9379L40.6449 22.9499C40.7964 22.9947 40.925 23.0697 41.0312 23.1749L40.8468 23.4869C40.7578 23.406 40.6529 23.3448 40.539 23.3067C40.5116 23.2979 40.4839 23.29 40.4559 23.2832C40.4367 23.2789 40.4174 23.2751 40.3979 23.2716C40.3796 23.2683 40.3611 23.2654 40.3427 23.2631L40.3019 23.2587C40.2691 23.2557 40.2362 23.2543 40.2032 23.2546C40.0027 23.2552 39.81 23.3331 39.6653 23.472C39.6466 23.4904 39.6289 23.5095 39.6122 23.5297C39.5924 23.5534 39.5741 23.5786 39.5574 23.6047C39.5336 23.6419 39.5131 23.6808 39.4961 23.7216C39.4868 23.7427 39.4786 23.7644 39.4714 23.7866C39.4631 23.8121 39.4562 23.8382 39.4506 23.8648C39.4389 23.922 39.4332 23.982 39.4332 24.0459C39.4332 24.1036 39.4382 24.1584 39.448 24.2103C39.4538 24.241 39.4613 24.2703 39.4703 24.2987C39.4786 24.3245 39.4881 24.3491 39.4988 24.3728C39.5259 24.4344 39.559 24.49 39.5981 24.5402C39.621 24.5694 39.6459 24.5967 39.6728 24.6224C39.746 24.6924 39.8322 24.7446 39.9305 24.7798C40.0289 24.8146 40.1325 24.8349 40.2433 24.8349C40.2899 24.8349 40.3348 24.8316 40.378 24.8252C40.4612 24.8132 40.5381 24.7891 40.6095 24.7546C40.7143 24.7039 40.8087 24.6336 40.8872 24.5477L41.0766 24.8319ZM41.2835 22.9299H43.3283V23.3246H42.5054V25.1516H42.1065V23.3246H41.2835V22.9299ZM45.5827 24.9096C45.4717 25.0092 45.3431 25.0818 45.1915 25.1293C45.0454 25.1764 44.8931 25.2008 44.7397 25.2016C44.6782 25.2026 44.6168 25.1993 44.5558 25.1923C44.4491 25.1797 44.3439 25.1553 44.2424 25.1193C44.0932 25.0645 43.9673 24.9869 43.8637 24.8847C43.7579 24.7809 43.6754 24.6559 43.6213 24.5178C43.5658 24.3755 43.5355 24.2158 43.5355 24.0409C43.534 23.8859 43.5605 23.7321 43.6138 23.5868C43.6623 23.45 43.7388 23.3252 43.8382 23.2197C43.8857 23.1708 43.9376 23.1262 43.9931 23.087C44.0574 23.0416 44.1265 23.0032 44.1994 22.9724C44.2827 22.9379 44.3728 22.9124 44.4702 22.8972C44.5409 22.886 44.6155 22.8802 44.6942 22.8802C44.7405 22.8798 44.7866 22.8825 44.8321 22.888C44.8734 22.8931 44.9145 22.9004 44.9549 22.9097C45.0043 22.9214 45.053 22.9367 45.1006 22.9551C45.2244 23.0012 45.3378 23.0715 45.4339 23.1623C45.4585 23.186 45.4816 23.2106 45.5034 23.2367C45.5215 23.2581 45.5386 23.2801 45.5547 23.3029C45.5795 23.3378 45.6021 23.3747 45.622 23.4125C45.6343 23.4359 45.6456 23.4599 45.6559 23.4843C45.6788 23.5358 45.697 23.5895 45.7104 23.6454C45.7297 23.7248 45.7393 23.8091 45.7393 23.8988C45.7393 24.0011 45.7318 24.0884 45.7141 24.1657H43.9873C44.005 24.3758 44.0833 24.5402 44.227 24.6576C44.371 24.7751 44.5528 24.8322 44.7724 24.8322C44.8472 24.8322 44.9189 24.8264 44.9867 24.8146C45.0516 24.8035 45.1132 24.7871 45.1714 24.7651C45.2899 24.72 45.3883 24.6652 45.4616 24.6002L45.5827 24.9096ZM44.6764 23.2522C44.4694 23.2522 44.3054 23.307 44.1817 23.4192C44.0594 23.5297 43.9815 23.6805 43.9621 23.8437H45.3253C45.3151 23.6592 45.2549 23.5144 45.1411 23.4095C45.1222 23.392 45.1021 23.3761 45.081 23.3618C45.0611 23.348 45.0401 23.3357 45.0182 23.3246C45.0016 23.3161 44.9843 23.3085 44.9665 23.3015C44.8822 23.2686 44.7852 23.2522 44.6764 23.2522ZM46.2821 22.9299H46.6456L47.509 24.031L48.3268 22.9299H48.6803V25.1519H48.2816V23.5317L47.5039 24.5627H47.4886L46.6811 23.5314V25.1516H46.2821V22.9299ZM49.5912 22.997C49.6478 22.973 49.7061 22.9531 49.7656 22.9376C49.8944 22.9027 50.0281 22.8828 50.1697 22.8828C50.3076 22.8828 50.4278 22.8978 50.5302 22.9276C50.5987 22.9475 50.6591 22.9742 50.7114 23.0073C50.7614 23.0387 50.8039 23.0762 50.8387 23.1198C50.8949 23.1886 50.9386 23.2704 50.97 23.3648C51.0104 23.4863 51.0303 23.6287 51.0303 23.7916V25.1545H50.6569V24.8674C50.5912 24.9524 50.5003 25.027 50.3866 25.0921C50.2732 25.1568 50.124 25.1893 49.9373 25.1893C49.8019 25.1893 49.684 25.1638 49.5833 25.1128C49.5614 25.1018 49.5403 25.0894 49.5199 25.076C49.5061 25.0666 49.4927 25.0566 49.4796 25.0464C49.4652 25.0349 49.4511 25.0226 49.4375 25.0097C49.3113 24.8899 49.248 24.72 49.248 24.5029C49.2469 24.3983 49.2693 24.2952 49.3138 24.2006C49.3554 24.1144 49.4158 24.0385 49.4904 23.9788C49.5637 23.9187 49.6545 23.8736 49.7604 23.8437C49.7814 23.8379 49.8026 23.8323 49.824 23.8274L49.8563 23.8203L49.8924 23.8138C49.9581 23.8024 50.0259 23.7962 50.0965 23.7962C50.1932 23.7975 50.2894 23.8074 50.3842 23.8264C50.4822 23.8434 50.5752 23.8818 50.6569 23.939C50.6569 23.8947 50.6559 23.8519 50.6539 23.8106L50.6499 23.75C50.6473 23.7172 50.6437 23.6852 50.6392 23.6542C50.6266 23.5669 50.6038 23.4922 50.5684 23.4321C50.5517 23.404 50.5318 23.3779 50.5084 23.355C50.4974 23.3442 50.4857 23.3339 50.4731 23.3246C50.4646 23.3185 50.4557 23.3123 50.4463 23.3067C50.4362 23.3006 50.4256 23.295 50.4145 23.2897C50.3464 23.2549 50.2579 23.237 50.1469 23.237C50.008 23.237 49.8918 23.2522 49.801 23.2848L49.7527 23.3026L49.7118 23.3182L49.6639 23.3378C49.6187 23.3568 49.5735 23.3774 49.5282 23.3996L49.4223 23.0847C49.4764 23.0513 49.5329 23.022 49.5912 22.997ZM50.0764 24.8322C50.2228 24.8322 50.3416 24.8026 50.4325 24.7376C50.5144 24.6831 50.5891 24.6183 50.6545 24.5451V24.263C50.6103 24.2313 50.5633 24.205 50.5133 24.1836C50.4854 24.1716 50.4565 24.1613 50.4268 24.1528C50.4061 24.147 50.385 24.1417 50.3635 24.137C50.3389 24.1317 50.3137 24.1276 50.2879 24.1244C50.2436 24.1188 50.1974 24.1159 50.1497 24.1159C50.089 24.1159 50.0312 24.1232 49.9728 24.1382C49.944 24.1452 49.9159 24.1549 49.8889 24.1672C49.8648 24.178 49.8413 24.1909 49.819 24.2059C49.7761 24.2357 49.7383 24.2733 49.7103 24.3207L49.7046 24.3309C49.7004 24.3388 49.6966 24.3468 49.6932 24.355C49.6894 24.364 49.6862 24.3734 49.6834 24.3831C49.6807 24.3919 49.6786 24.401 49.6766 24.4103C49.6721 24.4329 49.6699 24.4569 49.6699 24.4827C49.6699 24.5876 49.7052 24.6726 49.7761 24.7373C49.8168 24.7733 49.8676 24.7994 49.9282 24.8149C49.9724 24.8264 50.0219 24.8322 50.0764 24.8322ZM54.7794 21.9567C54.7087 22.049 54.6331 22.1114 54.5524 22.1486C54.4714 22.1861 54.3832 22.2113 54.2872 22.2313C54.2152 22.2462 54.1399 22.2599 54.0609 22.2743L53.9818 22.2889C53.8621 22.3109 53.7459 22.3487 53.6358 22.4012C53.5941 22.419 53.5541 22.4407 53.5165 22.4656C53.4895 22.4835 53.4637 22.5028 53.4393 22.5239L53.4098 22.5506L53.3919 22.5684L53.3733 22.5881C53.3597 22.6042 53.3465 22.6206 53.3339 22.6373C53.3087 22.6704 53.2856 22.7047 53.2645 22.7404C53.2432 22.7764 53.2241 22.814 53.2069 22.8529C53.1637 22.9499 53.131 23.0527 53.1082 23.1599C53.0856 23.2675 53.073 23.372 53.0653 23.4743H53.0755C53.1108 23.3946 53.1612 23.3246 53.2218 23.2619C53.2838 23.1987 53.3543 23.1441 53.4314 23.0999C53.4482 23.0902 53.4652 23.0809 53.4825 23.0718C53.5019 23.0618 53.5217 23.0524 53.5418 23.0436C53.5878 23.0234 53.6353 23.0064 53.6839 22.9927C53.7749 22.9677 53.8682 22.9551 53.9641 22.9551C54.0578 22.954 54.1511 22.9642 54.242 22.9856C54.295 22.9982 54.3471 23.0146 54.3981 23.0349C54.5237 23.0847 54.6366 23.1617 54.729 23.2598C54.8213 23.3601 54.892 23.4781 54.936 23.6067C54.984 23.7417 55.0092 23.8938 55.0092 24.0609C55.0092 24.2158 54.9815 24.3629 54.9234 24.5003C54.8996 24.5594 54.8709 24.616 54.8377 24.6693C54.7942 24.7396 54.7434 24.8041 54.6861 24.8624C54.5824 24.9678 54.4588 25.0516 54.3226 25.1094C54.1813 25.1694 54.0247 25.2019 53.8556 25.2019C53.6713 25.2019 53.5072 25.1694 53.3607 25.1046C53.2144 25.0399 53.0904 24.9497 52.9871 24.8299C52.8835 24.7124 52.8055 24.5679 52.7497 24.3954C52.6942 24.2231 52.6666 24.0313 52.6666 23.8189C52.6666 23.6542 52.6765 23.4822 52.6969 23.3023C52.7166 23.1259 52.7565 22.9528 52.8154 22.7855C52.8735 22.6206 52.9594 22.4709 53.068 22.3388C53.1766 22.2063 53.3203 22.1017 53.4998 22.0241L53.5389 22.0071C53.5581 21.9992 53.5774 21.9916 53.5969 21.9846C53.6323 21.9717 53.668 21.96 53.7042 21.9494C53.7259 21.9433 53.7477 21.9374 53.7697 21.9321C53.7973 21.9254 53.8251 21.9195 53.8531 21.9145L53.9912 21.8908L54.0652 21.8779L54.1408 21.8644C54.1851 21.8568 54.2291 21.8466 54.2723 21.8337C54.3063 21.8237 54.3399 21.8123 54.373 21.7994C54.3913 21.7923 54.4091 21.7833 54.4264 21.7731L54.4489 21.7584C54.4897 21.73 54.5275 21.6919 54.5623 21.6447L54.7794 21.9567ZM53.0933 23.8938C53.0909 24.0256 53.1097 24.1572 53.1486 24.2832C53.182 24.3898 53.2341 24.4895 53.3026 24.5779C53.3679 24.657 53.4498 24.7209 53.5425 24.7651C53.6358 24.8099 53.7371 24.8325 53.8479 24.8325C53.9319 24.8325 54.0089 24.8211 54.0807 24.7979L54.1068 24.7891C54.1208 24.7842 54.1347 24.7786 54.1486 24.7724C54.2358 24.7356 54.3148 24.6811 54.3807 24.6131C54.4466 24.5448 54.4982 24.464 54.5323 24.3755C54.5673 24.2859 54.5878 24.1883 54.5878 24.081C54.5878 23.8639 54.5272 23.6841 54.4033 23.5396C54.3618 23.4916 54.3144 23.4517 54.2606 23.4198C54.2165 23.3934 54.1681 23.3727 54.1156 23.3571C54.0416 23.3354 53.9593 23.3246 53.8682 23.3246C53.6798 23.3231 53.4964 23.3856 53.3481 23.5018C53.2825 23.5545 53.227 23.6143 53.184 23.6817C53.1691 23.704 53.1557 23.7271 53.1438 23.7512C53.1343 23.7705 53.1257 23.7901 53.1182 23.8101C53.1079 23.8373 53.0996 23.8654 53.0933 23.8938ZM57.67 22.9302H58.069V25.1522H57.67V22.9302ZM55.9837 22.9302H55.5847H55.5823V25.1545H56.3068C56.3432 25.1545 56.378 25.1533 56.4117 25.1512C56.433 25.1501 56.4536 25.1483 56.4738 25.1462C56.492 25.1445 56.5099 25.1424 56.5273 25.1398C56.61 25.1281 56.6843 25.1094 56.7511 25.0848C56.7792 25.0742 56.8061 25.0631 56.8316 25.0511L56.8642 25.0347L56.89 25.0209C56.9082 25.0103 56.9256 24.9992 56.9422 24.9875C56.9528 24.9801 56.9631 24.9725 56.973 24.965C56.9852 24.9552 56.9969 24.9453 57.0082 24.9351C57.0189 24.9254 57.0291 24.9151 57.0388 24.9048C57.1096 24.8299 57.1628 24.7475 57.1931 24.6529C57.2124 24.5967 57.2257 24.5404 57.2332 24.4833C57.2384 24.4437 57.241 24.4036 57.241 24.3629C57.241 24.3415 57.2402 24.3204 57.2388 24.2993C57.2376 24.2808 57.2358 24.2627 57.2336 24.2445C57.2266 24.1871 57.2146 24.1311 57.198 24.0758C57.1702 23.9837 57.1222 23.9014 57.054 23.8315C56.9859 23.7614 56.8951 23.7043 56.7814 23.6615C56.6676 23.6193 56.5264 23.5967 56.3524 23.5967H55.9837V22.9302ZM56.274 24.7824H55.9837V23.9685V23.9633H56.2792C56.3163 23.9633 56.3515 23.9644 56.3847 23.9671C56.4357 23.9711 56.4819 23.9785 56.5233 23.9888C56.5545 23.9963 56.5829 24.0061 56.6087 24.0171C56.6414 24.0315 56.6695 24.0485 56.6933 24.0684C56.72 24.0919 56.7426 24.1185 56.7608 24.149C56.7809 24.1824 56.7958 24.2202 56.805 24.2621C56.8128 24.2969 56.8167 24.3347 56.8167 24.3755C56.8167 24.5079 56.7766 24.6075 56.6956 24.6775C56.6603 24.708 56.6135 24.732 56.5554 24.7493C56.4804 24.7713 56.3864 24.7824 56.274 24.7824ZM60.7072 24.8319C60.6113 24.9544 60.485 25.047 60.3335 25.1094C60.178 25.1723 60.0117 25.2046 59.8438 25.204C59.677 25.2063 59.511 25.1785 59.354 25.122C59.213 25.0707 59.084 24.9907 58.9754 24.8873C58.9342 24.8475 58.8964 24.8044 58.8622 24.7587L58.8345 24.7197C58.8246 24.705 58.8151 24.6901 58.8059 24.6749L58.7931 24.6535C58.7848 24.6392 58.7769 24.6245 58.7692 24.6096C58.759 24.5899 58.7493 24.57 58.7402 24.5495L58.7279 24.5199C58.6678 24.3684 58.6378 24.2064 58.6398 24.0432C58.6398 23.8812 58.6673 23.7312 58.7254 23.5892C58.781 23.4468 58.8617 23.3246 58.9628 23.222C59.0638 23.1171 59.1848 23.0375 59.3213 22.9751C59.4652 22.9118 59.6211 22.8802 59.7782 22.8825C59.9572 22.8825 60.124 22.905 60.2755 22.9499C60.4272 22.9947 60.5558 23.0697 60.6617 23.1749L60.4775 23.4869C60.4402 23.4529 60.4 23.4224 60.3575 23.3958C60.3366 23.3826 60.3151 23.3703 60.293 23.3589C60.2757 23.3501 60.2581 23.3419 60.24 23.3339L60.2064 23.3202L60.1693 23.3067C60.0609 23.2719 59.9476 23.2543 59.8337 23.2546C59.7931 23.2546 59.7533 23.2578 59.7141 23.264C59.6559 23.2733 59.5992 23.2897 59.5432 23.312C59.4514 23.3489 59.3675 23.4034 59.2961 23.472C59.2727 23.4948 59.2508 23.5191 59.2308 23.5446L59.2133 23.5677C59.1786 23.6155 59.1497 23.6671 59.1268 23.7216C59.084 23.8186 59.0638 23.9261 59.0638 24.0459C59.0638 24.1681 59.0864 24.2779 59.1293 24.3728C59.1722 24.4701 59.2304 24.5527 59.3036 24.6224C59.3767 24.6924 59.4625 24.7446 59.561 24.7798C59.6597 24.8146 59.7631 24.8349 59.8741 24.8349C59.9562 24.8349 60.0327 24.8249 60.1042 24.8053C60.1223 24.8003 60.14 24.7947 60.1575 24.7886C60.1859 24.7789 60.2134 24.7675 60.2402 24.7546C60.3451 24.7039 60.4394 24.6336 60.518 24.5477L60.7072 24.8319ZM60.9142 22.9299H62.9591V23.3246H62.1359V25.1516H61.7371V23.3246H60.9142V22.9299ZM63.3931 22.9305H63.7922V23.1925C63.8678 23.1022 63.9763 23.0305 64.1153 22.9704C64.2542 22.9104 64.4005 22.8805 64.5568 22.8805C64.5821 22.8798 64.6073 22.8805 64.6325 22.8819C64.6834 22.8849 64.7338 22.8913 64.7835 22.9012C64.8536 22.9153 64.9223 22.9367 64.9885 22.9652C65.1131 23.0173 65.2247 23.0967 65.3143 23.1974C65.4058 23.3009 65.4762 23.4213 65.5214 23.5517C65.5447 23.6184 65.5626 23.6885 65.5749 23.762C65.5879 23.84 65.5945 23.9214 65.5945 24.0063C65.5945 24.1733 65.5667 24.3309 65.5112 24.4777C65.4557 24.6251 65.3772 24.7499 65.2738 24.8577C65.1687 24.965 65.0436 25.0505 64.9054 25.1097C64.7614 25.1694 64.6024 25.2016 64.4257 25.2016C64.3069 25.2016 64.1909 25.1893 64.0799 25.1645C63.9689 25.1396 63.8729 25.102 63.7922 25.0496V26.1403H63.3931V22.9305ZM64.4411 23.2522C64.3072 23.2522 64.1836 23.2824 64.0699 23.3424C63.9565 23.4022 63.8629 23.4746 63.7924 23.5592V24.6602C63.8828 24.7209 63.9826 24.7666 64.0876 24.7953C64.1836 24.8202 64.2848 24.8325 64.3931 24.8325C64.5048 24.8346 64.6157 24.8132 64.7188 24.7701C64.8112 24.7323 64.8948 24.6752 64.9636 24.6028C65.0321 24.5296 65.0848 24.4429 65.1178 24.3482C65.153 24.2483 65.1733 24.1411 65.1733 24.0212C65.1733 23.996 65.1726 23.9711 65.171 23.9469L65.1676 23.9073L65.1644 23.8792L65.16 23.8502L65.1549 23.8223L65.1479 23.7898C65.1416 23.7631 65.1341 23.7371 65.1253 23.7116C65.095 23.617 65.0471 23.537 64.9841 23.467C64.9207 23.3972 64.8451 23.3448 64.7543 23.3073C64.6607 23.2698 64.5571 23.2522 64.4411 23.2522ZM68.2552 22.9302H68.6542V25.1519H68.2552V22.9302ZM66.5666 22.9302H66.1676H66.1652V25.1542H66.8896C67.0664 25.1542 67.2127 25.1293 67.334 25.0848C67.4552 25.0396 67.5511 24.9799 67.6217 24.9048C67.6925 24.8299 67.7455 24.7475 67.7758 24.6526C67.8085 24.558 67.8236 24.4628 67.8236 24.3629C67.8236 24.263 67.8085 24.1683 67.7807 24.0758C67.7531 23.9837 67.7051 23.9012 67.637 23.8315C67.5689 23.7614 67.478 23.704 67.3642 23.6615C67.2505 23.6193 67.1093 23.5967 66.935 23.5967H66.5666V22.9302ZM66.8597 24.7824H66.5692V23.9685V23.9633H66.8647C67.0564 23.9633 67.1953 23.9984 67.2788 24.0684C67.3595 24.1385 67.4022 24.2404 67.4022 24.3755C67.4022 24.5079 67.3619 24.6075 67.2811 24.6772C67.2004 24.7475 67.0589 24.7824 66.8597 24.7824ZM70.5679 24.0011L71.4211 25.1519H70.9315L70.2725 24.253L69.6035 25.1519H69.139L69.9871 24.0207L69.1894 22.9299H69.6794L70.2877 23.7687L70.906 22.9299H71.3707L70.5679 24.0011ZM35.5229 27.8975H34.2986V29.75H33.8996V27.5284H35.9216V29.75H35.5229V27.8975ZM38.186 27.9224H37.3985L37.373 28.2968C37.3556 28.4963 37.3342 28.6709 37.3075 28.8216C37.2917 28.9103 37.2741 28.9909 37.2545 29.0633C37.2013 29.2581 37.1357 29.4078 37.0601 29.5127C36.9845 29.6175 36.8959 29.6899 36.7948 29.7251C36.6906 29.7629 36.5803 29.7813 36.4693 29.7799L36.439 29.3952C36.4819 29.3976 36.5323 29.3878 36.5878 29.3629C36.6437 29.3381 36.6992 29.283 36.7519 29.2009C36.8051 29.1157 36.8531 28.9959 36.8959 28.8412C36.9388 28.6839 36.9668 28.4793 36.9817 28.2219L37.0223 27.5305H38.585V29.7523H38.186V27.9224ZM39.3168 27.6804C39.4153 27.618 39.5315 27.5683 39.6604 27.5334C39.7919 27.497 39.9277 27.4786 40.0642 27.4786C40.3822 27.4786 40.6069 27.558 40.7332 27.7156C40.8618 27.873 40.9252 28.0976 40.9252 28.3871V29.75H40.5514V29.4629C40.4856 29.5478 40.3948 29.6228 40.2814 29.6876C40.1677 29.7526 40.019 29.7851 39.8321 29.7851C39.6251 29.7851 39.4582 29.7251 39.3322 29.6053C39.2629 29.5399 39.2129 29.4593 39.1815 29.3642C39.1557 29.2853 39.1428 29.1968 39.1428 29.0987C39.1427 29.0829 39.143 29.0671 39.1438 29.0512C39.1458 29.0164 39.1503 28.9821 39.1575 28.9484C39.1684 28.8959 39.1854 28.845 39.2083 28.7964C39.2499 28.7102 39.3103 28.6344 39.385 28.5746C39.4248 28.5418 39.4698 28.5136 39.5196 28.4899C39.5615 28.47 39.6067 28.4533 39.6552 28.4395C39.7612 28.4094 39.8725 28.3921 39.991 28.3921C40.0877 28.3932 40.1839 28.4032 40.2787 28.422C40.315 28.4284 40.3506 28.4378 40.3852 28.4498C40.4441 28.4703 40.5 28.4987 40.5514 28.5341C40.5514 28.4319 40.5463 28.3373 40.5337 28.2497C40.5269 28.2034 40.5174 28.1606 40.5047 28.1216C40.4981 28.1017 40.4908 28.0827 40.4826 28.0648C40.4765 28.052 40.4701 28.0394 40.4632 28.0276C40.4278 27.9676 40.3774 27.9177 40.309 27.8852C40.2646 27.8627 40.2119 27.8471 40.1496 27.8393L40.1191 27.836C40.0945 27.8339 40.0686 27.8328 40.0414 27.8328C39.9028 27.8328 39.7864 27.848 39.6955 27.8802C39.6691 27.8896 39.6428 27.8996 39.6164 27.9098C39.5521 27.935 39.4876 27.9632 39.423 27.9951L39.3168 27.6804ZM39.9736 29.428C40.0651 29.428 40.1458 29.4163 40.2155 29.3917C40.2574 29.3768 40.2954 29.3574 40.3294 29.3328C40.4114 29.2786 40.4861 29.2138 40.5517 29.1406V28.8585C40.4128 28.7588 40.2435 28.7117 40.0468 28.7117C40.0238 28.7117 40.0008 28.7126 39.9779 28.7146C39.9416 28.7182 39.9056 28.7246 39.8701 28.7337C39.8118 28.7489 39.7591 28.7712 39.7162 28.8013C39.6732 28.8312 39.6352 28.8687 39.6076 28.9162C39.5796 28.9636 39.567 29.0161 39.567 29.0785C39.567 29.1831 39.6025 29.268 39.6732 29.3328C39.7439 29.3955 39.8422 29.428 39.9736 29.428ZM41.3189 27.5284H43.3637V27.9227H42.5405V29.75H42.1418V27.923H41.3189V27.5284ZM45.4071 29.6536C45.3508 29.6829 45.2909 29.7075 45.2269 29.7274C45.0755 29.7749 44.924 29.8 44.7749 29.8C44.6055 29.8021 44.4372 29.7743 44.2777 29.7175C44.1287 29.6627 44.0023 29.585 43.8988 29.4828C43.7953 29.3806 43.7122 29.2581 43.6564 29.116C43.6009 28.9733 43.5706 28.8139 43.5706 28.639C43.5693 28.484 43.5958 28.3302 43.649 28.1847C43.6717 28.1211 43.7004 28.0602 43.7347 28.0024C43.7739 27.9362 43.8205 27.8741 43.8737 27.8179C43.9761 27.7118 44.099 27.6277 44.2349 27.5706C44.3786 27.5105 44.5427 27.4783 44.7296 27.4783C44.8686 27.4774 45.0064 27.5029 45.1361 27.5533C45.2599 27.5993 45.3731 27.6699 45.469 27.7604C45.5641 27.8519 45.6397 27.9614 45.6914 28.0824C45.7469 28.2072 45.7747 28.3446 45.7747 28.4966C45.7747 28.5992 45.767 28.6868 45.7495 28.7638H44.0228C44.0405 28.9736 44.1184 29.1386 44.2624 29.2557C44.4064 29.3729 44.5882 29.4303 44.8078 29.4303C44.9543 29.4303 45.0881 29.4081 45.2065 29.3633C45.3253 29.3181 45.4238 29.2634 45.497 29.198L45.6181 29.5077C45.554 29.5651 45.484 29.6138 45.4071 29.6536ZM44.7095 27.8478C44.5024 27.8478 44.3383 27.9028 44.2147 28.015C44.0925 28.1252 44.0145 28.276 43.9951 28.4395H45.3583C45.3482 28.2546 45.2876 28.1099 45.1742 28.0051C45.0605 27.9028 44.9066 27.8478 44.7095 27.8478ZM46.4741 27.5284H45.9691L46.7944 28.5992L45.9313 29.75H46.4209L47.2438 28.5995L46.4741 27.5284ZM47.7413 27.5284H47.3422V29.75H47.7413V27.5284ZM48.289 28.5992L49.1674 29.75H48.6728L47.8396 28.5992L48.6145 27.5281H49.1096L48.289 28.5992ZM51.3814 29.5077C51.2704 29.6073 51.1418 29.6799 50.9902 29.7274C50.8441 29.7743 50.6918 29.7989 50.5384 29.8C50.3691 29.8021 50.2006 29.7743 50.0411 29.7175C49.892 29.6627 49.766 29.585 49.6625 29.4828C49.5589 29.3806 49.4755 29.2581 49.42 29.116C49.3645 28.9733 49.3343 28.8139 49.3343 28.639C49.3327 28.484 49.3593 28.3302 49.4125 28.1847C49.4611 28.0481 49.5377 27.923 49.6372 27.8179C49.7395 27.7118 49.8624 27.6277 49.9982 27.5706C50.1422 27.5105 50.3063 27.4783 50.4929 27.4783C50.6319 27.4774 50.7697 27.5029 50.8993 27.5533C51.0233 27.5993 51.1365 27.6699 51.2326 27.7604C51.3275 27.8519 51.403 27.9614 51.4547 28.0824C51.5105 28.2072 51.538 28.3446 51.538 28.4966C51.538 28.5992 51.5306 28.6868 51.5128 28.7638H49.7861C49.8038 28.9736 49.8821 29.1386 50.0258 29.2557C50.1697 29.3729 50.3515 29.4303 50.5711 29.4303C50.7176 29.4303 50.8513 29.4081 50.9701 29.3633C51.0886 29.3181 51.187 29.2634 51.2603 29.198L51.3814 29.5077ZM50.4731 27.8478C50.2661 27.8478 50.1019 27.9028 49.9781 28.015C49.8558 28.1252 49.7777 28.276 49.7584 28.4395H51.1217C51.1117 28.2546 51.0511 28.1099 50.9374 28.0051C50.8238 27.9028 50.6675 27.8478 50.4731 27.8478ZM52.8798 26.68C52.944 26.748 53.0364 26.7819 53.1565 26.7819C53.3786 26.7819 53.5023 26.6521 53.5201 26.3926H53.8937C53.8937 26.4921 53.8759 26.5821 53.8406 26.667C53.8055 26.752 53.7548 26.8244 53.6918 26.8842C53.6635 26.91 53.6333 26.9339 53.601 26.9556C53.5582 26.9843 53.5114 27.009 53.4596 27.0289C53.4082 27.05 53.3535 27.0646 53.2951 27.0737C53.2503 27.0805 53.2033 27.0837 53.1539 27.0837C53.1063 27.0837 53.0608 27.081 53.0178 27.0758C52.949 27.0673 52.8858 27.052 52.8284 27.0289C52.7351 26.9917 52.6541 26.9442 52.5911 26.8842C52.553 26.8481 52.5203 26.8071 52.4933 26.7617C52.4756 26.7321 52.4602 26.7004 52.4471 26.667C52.4288 26.6199 52.4153 26.571 52.4069 26.5197C52.4002 26.479 52.3967 26.4368 52.3967 26.3926H52.7729C52.7827 26.5194 52.8184 26.6152 52.8798 26.68ZM52.4773 29.75H52.0784V27.5281H52.4773V29.1831L53.7749 27.5281H54.1739V29.75H53.7749V28.0947L52.4773 29.75Z" fill="black"/>
</g>
<defs>
<clipPath id="clip0_76_16191">
<rect width="72" height="36" fill="white"/>
</clipPath>
</defs>
</svg>
