<svg width="73" height="36" viewBox="0 0 73 36" fill="none" xmlns="http://www.w3.org/2000/svg">
<g clip-path="url(#clip0_76_15988)">
<path d="M0.5 7.83633L4.85959 15.6288V20.382L0.5051 28.1592L0.5 7.83633Z" fill="#5B57A2"/>
<path d="M17.2393 12.7927L21.3244 10.2889L29.6847 10.2811L17.2393 17.9053V12.7927Z" fill="#D90751"/>
<path d="M17.2159 7.79011L17.2389 18.1071L12.8691 15.4221V0L17.2159 7.79011Z" fill="#FAB718"/>
<path d="M29.6844 10.2813L21.3237 10.2891L17.2159 7.79011L12.8691 0L29.6844 10.2813Z" fill="#ED6F26"/>
<path d="M17.2389 28.2025V23.197L12.8691 20.563L12.8715 36.0004L17.2389 28.2025Z" fill="#63B22F"/>
<path d="M21.314 25.7214L4.8593 15.6288L0.5 7.83633L29.6668 25.7112L21.314 25.7214Z" fill="#1487C9"/>
<path d="M12.8721 36.0003L17.2389 28.2024L21.3138 25.7214L29.6666 25.7112L12.8721 36.0003Z" fill="#017F36"/>
<path d="M0.504883 28.1587L12.9048 20.5627L8.73598 18.0049L4.85938 20.3815L0.504883 28.1587Z" fill="#984995"/>
<path fill-rule="evenodd" clip-rule="evenodd" d="M48.1657 19.2233C50.9791 19.2233 53.0682 17.4984 53.0682 14.8833C53.0682 12.3521 51.5269 10.7088 48.9508 10.7088C47.7619 10.7088 46.7808 11.1272 46.042 11.8493C46.2184 10.357 47.4804 9.26711 48.87 9.26711C49.1908 9.26711 51.6052 9.26215 51.6052 9.26215L52.9705 6.64944C52.9705 6.64944 49.9393 6.71859 48.5302 6.71859C45.3106 6.77454 43.1359 9.70099 43.1359 13.2553C43.1359 17.3964 45.2569 19.2233 48.1657 19.2233ZM48.1829 13.023C49.2275 13.023 49.9515 13.7094 49.9515 14.883C49.9515 15.9392 49.3082 16.8096 48.1829 16.8119C47.1063 16.8119 46.3822 16.0054 46.3822 14.9009C46.3822 13.727 47.1063 13.023 48.1829 13.023ZM63.9318 10.1074V18.9087H60.789V12.7347H57.7629V18.9087H54.6201V10.1068L63.9318 10.1074ZM38.727 16.4709C39.8356 16.3901 40.5777 15.962 40.5777 15.962L41.7408 18.1139C40.9959 18.5923 39.7738 18.9034 38.8878 18.9363C35.7184 18.9945 33.5137 17.0659 33.5137 14.2561C33.5137 11.4817 35.8593 9.50709 38.8878 9.50709C40.0878 9.50709 41.1195 9.829 41.8941 10.4162C41.7311 10.705 41.5095 11.1052 41.2988 11.4881L40.9615 12.1028L40.6546 12.6641C40.6546 12.6641 39.5386 12.0793 38.6949 12.0793C37.3192 12.0793 36.3172 12.8788 36.3172 14.2736C36.3172 15.7039 37.4526 16.5087 38.727 16.4709ZM36.3181 24.8319C36.2221 24.9544 36.0959 25.047 35.9444 25.1094C35.7888 25.1726 35.6226 25.2049 35.4547 25.204C35.2878 25.2063 35.1219 25.1785 34.9648 25.122C34.8238 25.0707 34.6949 24.9908 34.5862 24.8873C34.479 24.7836 34.3947 24.6585 34.3391 24.52C34.2787 24.3685 34.2487 24.2065 34.2506 24.0432C34.2506 23.8812 34.2785 23.7313 34.3363 23.5892C34.3918 23.4468 34.4725 23.3246 34.5736 23.2221C34.6194 23.1746 34.6694 23.1322 34.723 23.0941L34.7558 23.0718C34.7902 23.0492 34.8262 23.0281 34.8633 23.0088L34.9033 22.9889L34.9322 22.9751C35.071 22.9151 35.2225 22.8825 35.3891 22.8825C35.5683 22.8825 35.7349 22.9051 35.8864 22.9499C35.982 22.9781 36.0684 23.0182 36.1458 23.0703C36.1912 23.1011 36.2334 23.136 36.2725 23.1749L36.0884 23.4869C35.9992 23.406 35.8943 23.3448 35.7802 23.3068C35.6718 23.2719 35.5584 23.2543 35.4446 23.2546C35.3437 23.2546 35.2477 23.2745 35.1544 23.312C35.0625 23.3489 34.9785 23.4032 34.907 23.472C34.8337 23.5423 34.7762 23.6276 34.7377 23.7216C34.6949 23.8186 34.6747 23.9261 34.6747 24.0459C34.6747 24.1681 34.6972 24.278 34.7401 24.3729C34.7834 24.4701 34.8412 24.5527 34.9144 24.6225C34.9876 24.6925 35.0734 24.7447 35.1718 24.7798C35.212 24.7951 35.253 24.807 35.2949 24.8158C35.3559 24.8287 35.4192 24.8349 35.485 24.8349C35.6213 24.8349 35.7452 24.807 35.8511 24.7546C35.9066 24.7277 35.9592 24.6954 36.0081 24.6582C36.0515 24.6251 36.0919 24.5882 36.1288 24.5477L36.3181 24.8319ZM36.8381 25.1516V22.93H37.237V24.5853L38.5345 22.93H38.9335V25.1519H38.5345V23.4969L37.237 25.1519L36.8381 25.1516ZM41.5766 24.8319C41.4785 24.9556 41.3496 25.0511 41.2031 25.1094C41.114 25.1454 41.0213 25.1715 40.9268 25.187C40.8563 25.1985 40.7848 25.2043 40.7132 25.204C40.6463 25.2049 40.5795 25.2011 40.5134 25.1923C40.4147 25.1794 40.3175 25.156 40.2235 25.122C40.1912 25.1103 40.1596 25.0971 40.1287 25.0824C40.0914 25.0646 40.055 25.0446 40.0199 25.0229C39.9572 24.984 39.8984 24.9386 39.8447 24.8873C39.7373 24.7836 39.6531 24.6585 39.5974 24.52C39.5372 24.3685 39.507 24.2065 39.509 24.0432C39.509 23.8812 39.5368 23.7313 39.5948 23.5892C39.6506 23.4468 39.7312 23.3246 39.8321 23.2221C39.9332 23.1172 40.0543 23.0375 40.1905 22.9751C40.3344 22.9118 40.4903 22.8802 40.6474 22.8825C40.7517 22.8825 40.8515 22.8902 40.9465 22.9054L41.0023 22.9151C41.0234 22.9192 41.0444 22.9239 41.065 22.9288L41.1018 22.9379L41.1449 22.9499C41.2964 22.9947 41.425 23.0697 41.5312 23.1749L41.3468 23.4869C41.2578 23.406 41.1529 23.3448 41.039 23.3068C41.0116 23.298 40.9839 23.29 40.9559 23.2833C40.9367 23.2789 40.9174 23.2751 40.8979 23.2716C40.8796 23.2684 40.8611 23.2654 40.8427 23.2631L40.8019 23.2587C40.7691 23.2558 40.7362 23.2543 40.7032 23.2546C40.5027 23.2552 40.31 23.3331 40.1653 23.472C40.1466 23.4904 40.1289 23.5095 40.1122 23.5297C40.0924 23.5534 40.0741 23.5786 40.0574 23.6047C40.0336 23.6419 40.0131 23.6809 39.9961 23.7216C39.9868 23.7427 39.9786 23.7644 39.9714 23.7866C39.9631 23.8121 39.9562 23.8382 39.9506 23.8648C39.9389 23.922 39.9332 23.982 39.9332 24.0459C39.9332 24.1036 39.9382 24.1584 39.948 24.2103C39.9538 24.241 39.9613 24.2703 39.9703 24.2988C39.9786 24.3245 39.9881 24.3492 39.9988 24.3729C40.0259 24.4344 40.059 24.4901 40.0981 24.5402C40.121 24.5694 40.1459 24.5967 40.1728 24.6225C40.246 24.6925 40.3322 24.7447 40.4305 24.7798C40.5289 24.8146 40.6325 24.8349 40.7433 24.8349C40.7899 24.8349 40.8348 24.8316 40.878 24.8252C40.9612 24.8132 41.0381 24.7892 41.1095 24.7546C41.2143 24.7039 41.3087 24.6336 41.3872 24.5477L41.5766 24.8319ZM41.7835 22.93H43.8283V23.3246H43.0054V25.1516H42.6065V23.3246H41.7835V22.93ZM46.0827 24.9096C45.9717 25.0092 45.8431 25.0818 45.6915 25.1293C45.5454 25.1764 45.3931 25.2008 45.2397 25.2016C45.1782 25.2026 45.1168 25.1993 45.0558 25.1923C44.9491 25.1797 44.8439 25.1554 44.7424 25.1194C44.5932 25.0646 44.4673 24.9869 44.3637 24.8847C44.2579 24.781 44.1754 24.6559 44.1213 24.5179C44.0658 24.3755 44.0355 24.2158 44.0355 24.0409C44.034 23.8859 44.0605 23.7321 44.1138 23.5868C44.1623 23.45 44.2388 23.3252 44.3382 23.2197C44.3857 23.1708 44.4376 23.1262 44.4931 23.087C44.5574 23.0416 44.6265 23.0032 44.6994 22.9725C44.7827 22.9379 44.8728 22.9124 44.9702 22.8972C45.0409 22.8861 45.1155 22.8802 45.1942 22.8802C45.2405 22.8799 45.2866 22.8825 45.3321 22.8881C45.3734 22.8931 45.4145 22.9004 45.4549 22.9097C45.5043 22.9215 45.553 22.9367 45.6006 22.9552C45.7244 23.0012 45.8378 23.0715 45.9339 23.1623C45.9585 23.1861 45.9816 23.2106 46.0034 23.2367C46.0215 23.2582 46.0386 23.2801 46.0547 23.3029C46.0795 23.3378 46.1021 23.3747 46.122 23.4125C46.1343 23.4359 46.1456 23.46 46.1559 23.4843C46.1788 23.5359 46.197 23.5895 46.2104 23.6454C46.2297 23.7248 46.2393 23.8092 46.2393 23.8988C46.2393 24.0011 46.2318 24.0884 46.2141 24.1657H44.4873C44.505 24.3758 44.5833 24.5402 44.727 24.6576C44.871 24.7751 45.0528 24.8322 45.2724 24.8322C45.3472 24.8322 45.4189 24.8264 45.4867 24.8146C45.5516 24.8036 45.6132 24.7871 45.6714 24.7651C45.7899 24.72 45.8883 24.6652 45.9616 24.6002L46.0827 24.9096ZM45.1764 23.2522C44.9694 23.2522 44.8054 23.307 44.6817 23.4192C44.5594 23.5297 44.4815 23.6806 44.4621 23.8437H45.8253C45.8151 23.6592 45.7549 23.5145 45.6411 23.4096C45.6222 23.392 45.6021 23.3762 45.581 23.3618C45.5611 23.3481 45.5401 23.3358 45.5182 23.3246C45.5016 23.3161 45.4843 23.3085 45.4665 23.3015C45.3822 23.2687 45.2852 23.2522 45.1764 23.2522ZM46.7821 22.93H47.1456L48.009 24.031L48.8268 22.93H49.1803V25.1519H48.7816V23.5318L48.0039 24.5627H47.9886L47.1811 23.5315V25.1516H46.7821V22.93ZM50.0912 22.9971C50.1478 22.973 50.2061 22.9532 50.2656 22.9376C50.3944 22.9028 50.5281 22.8828 50.6697 22.8828C50.8076 22.8828 50.9278 22.8978 51.0302 22.9277C51.0987 22.9475 51.1591 22.9743 51.2114 23.0073C51.2614 23.0387 51.3039 23.0762 51.3387 23.1198C51.3949 23.1887 51.4386 23.2704 51.47 23.3648C51.5104 23.4863 51.5303 23.6287 51.5303 23.7916V25.1545H51.1569V24.8674C51.0912 24.9524 51.0003 25.027 50.8866 25.0921C50.7732 25.1569 50.624 25.1893 50.4373 25.1893C50.3019 25.1893 50.184 25.1638 50.0833 25.1129C50.0614 25.1018 50.0403 25.0895 50.0199 25.076C50.0061 25.0666 49.9927 25.0566 49.9796 25.0464C49.9652 25.035 49.9511 25.0227 49.9375 25.0098C49.8113 24.89 49.748 24.72 49.748 24.503C49.7469 24.3983 49.7693 24.2952 49.8138 24.2006C49.8554 24.1144 49.9158 24.0386 49.9904 23.9788C50.0637 23.9188 50.1545 23.8737 50.2604 23.8437C50.2814 23.8379 50.3026 23.8324 50.324 23.8274L50.3563 23.8203L50.3924 23.8138C50.4581 23.8025 50.5259 23.7963 50.5965 23.7963C50.6932 23.7975 50.7894 23.8074 50.8842 23.8264C50.9822 23.8434 51.0752 23.8818 51.1569 23.939C51.1569 23.8947 51.1559 23.8519 51.1539 23.8107L51.1499 23.75C51.1473 23.7172 51.1437 23.6853 51.1392 23.6542C51.1266 23.5669 51.1038 23.4922 51.0684 23.4322C51.0517 23.404 51.0318 23.378 51.0084 23.3551C50.9974 23.3443 50.9857 23.334 50.9731 23.3246C50.9646 23.3185 50.9557 23.3123 50.9463 23.3068C50.9362 23.3006 50.9256 23.295 50.9145 23.2898C50.8464 23.2549 50.7579 23.2371 50.6469 23.2371C50.508 23.2371 50.3918 23.2522 50.301 23.2848L50.2527 23.3026L50.2118 23.3182L50.1639 23.3378C50.1187 23.3569 50.0735 23.3774 50.0282 23.3996L49.9223 23.0847C49.9764 23.0513 50.0329 23.022 50.0912 22.9971ZM50.5764 24.8322C50.7228 24.8322 50.8416 24.8026 50.9325 24.7376C51.0144 24.6831 51.0891 24.6184 51.1545 24.5452V24.263C51.1103 24.2314 51.0633 24.205 51.0133 24.1836C50.9854 24.1716 50.9565 24.1613 50.9268 24.1528C50.9061 24.147 50.885 24.1417 50.8635 24.1371C50.8389 24.1317 50.8137 24.1276 50.7879 24.1245C50.7436 24.1188 50.6974 24.116 50.6497 24.116C50.589 24.116 50.5312 24.1232 50.4728 24.1382C50.444 24.1452 50.4159 24.1549 50.3889 24.1672C50.3648 24.178 50.3413 24.1909 50.319 24.2059C50.2761 24.2358 50.2383 24.2733 50.2103 24.3207L50.2046 24.331C50.2004 24.3389 50.1966 24.3468 50.1932 24.355C50.1894 24.3641 50.1862 24.3734 50.1834 24.3832C50.1807 24.3919 50.1786 24.401 50.1766 24.4104C50.1721 24.4329 50.1699 24.457 50.1699 24.4827C50.1699 24.5876 50.2052 24.6726 50.2761 24.7373C50.3168 24.7733 50.3676 24.7995 50.4282 24.8149C50.4724 24.8264 50.5219 24.8322 50.5764 24.8322ZM55.2794 21.9568C55.2087 22.0491 55.1331 22.1114 55.0524 22.1486C54.9714 22.1861 54.8832 22.2113 54.7872 22.2313C54.7152 22.2462 54.6399 22.2599 54.5609 22.2743L54.4818 22.289C54.3621 22.3109 54.2459 22.3487 54.1358 22.4012C54.0941 22.4191 54.0541 22.4407 54.0165 22.4656C53.9895 22.4835 53.9637 22.5029 53.9393 22.524L53.9098 22.5506L53.8919 22.5685L53.8733 22.5881C53.8597 22.6042 53.8465 22.6206 53.8339 22.6373C53.8087 22.6704 53.7856 22.7047 53.7645 22.7405C53.7432 22.7765 53.7241 22.814 53.7069 22.8529C53.6637 22.9499 53.631 23.0527 53.6082 23.1599C53.5856 23.2675 53.573 23.3721 53.5653 23.4743H53.5755C53.6108 23.3947 53.6612 23.3246 53.7218 23.2619C53.7838 23.1987 53.8543 23.1442 53.9314 23.0999C53.9482 23.0902 53.9652 23.0809 53.9825 23.0718C54.0019 23.0618 54.0217 23.0524 54.0418 23.0437C54.0878 23.0234 54.1353 23.0064 54.1839 22.9927C54.2749 22.9678 54.3682 22.9552 54.4641 22.9552C54.5578 22.954 54.6511 22.9642 54.742 22.9856C54.795 22.9982 54.8471 23.0146 54.8981 23.0349C55.0237 23.0847 55.1366 23.1617 55.229 23.2599C55.3213 23.3601 55.392 23.4781 55.436 23.6068C55.484 23.7418 55.5092 23.8938 55.5092 24.0609C55.5092 24.2158 55.4815 24.3629 55.4234 24.5003C55.3996 24.5595 55.3709 24.616 55.3377 24.6694C55.2942 24.7396 55.2434 24.8041 55.1861 24.8624C55.0824 24.9679 54.9588 25.0517 54.8226 25.1094C54.6813 25.1695 54.5247 25.2019 54.3556 25.2019C54.1713 25.2019 54.0072 25.1695 53.8607 25.1047C53.7144 25.0399 53.5904 24.9497 53.4871 24.8299C53.3835 24.7124 53.3055 24.568 53.2497 24.3954C53.1942 24.2232 53.1666 24.0313 53.1666 23.8189C53.1666 23.6542 53.1765 23.4822 53.1969 23.3024C53.2166 23.126 53.2565 22.9529 53.3154 22.7855C53.3735 22.6206 53.4594 22.4709 53.568 22.3388C53.6766 22.2064 53.8203 22.1018 53.9998 22.0241L54.0389 22.0072C54.0581 21.9992 54.0774 21.9916 54.0969 21.9846C54.1323 21.9717 54.168 21.96 54.2042 21.9494C54.2259 21.9433 54.2477 21.9374 54.2697 21.9321C54.2973 21.9254 54.3251 21.9195 54.3531 21.9146L54.4912 21.8908L54.5652 21.8779L54.6408 21.8644C54.6851 21.8568 54.7291 21.8466 54.7723 21.8337C54.8063 21.8238 54.8399 21.8123 54.873 21.7994C54.8913 21.7924 54.9091 21.7833 54.9264 21.7731L54.9489 21.7584C54.9897 21.73 55.0275 21.6919 55.0623 21.6448L55.2794 21.9568ZM53.5933 23.8938C53.5909 24.0257 53.6097 24.1572 53.6486 24.2832C53.682 24.3898 53.7341 24.4895 53.8026 24.5779C53.8679 24.657 53.9498 24.7209 54.0425 24.7651C54.1358 24.81 54.2371 24.8325 54.3479 24.8325C54.4319 24.8325 54.5089 24.8211 54.5807 24.7979L54.6068 24.7892C54.6208 24.7842 54.6347 24.7786 54.6486 24.7725C54.7358 24.7356 54.8148 24.6811 54.8807 24.6131C54.9466 24.5449 54.9982 24.464 55.0323 24.3755C55.0673 24.2859 55.0878 24.1883 55.0878 24.081C55.0878 23.864 55.0272 23.6841 54.9033 23.5397C54.8618 23.4916 54.8144 23.4518 54.7606 23.4199C54.7165 23.3934 54.6681 23.3727 54.6156 23.3572C54.5416 23.3355 54.4593 23.3246 54.3682 23.3246C54.1798 23.3232 53.9964 23.3856 53.8481 23.5019C53.7825 23.5546 53.727 23.6143 53.684 23.6817C53.6691 23.704 53.6557 23.7272 53.6438 23.7512C53.6343 23.7705 53.6257 23.7902 53.6182 23.8101C53.6079 23.8373 53.5996 23.8655 53.5933 23.8938ZM58.17 22.9303H58.569V25.1522H58.17V22.9303ZM56.4837 22.9303H56.0847H56.0823V25.1545H56.8068C56.8432 25.1545 56.878 25.1533 56.9117 25.1512C56.933 25.1501 56.9536 25.1484 56.9738 25.1463C56.992 25.1446 57.0099 25.1425 57.0273 25.1399C57.11 25.1281 57.1843 25.1094 57.2511 25.0848C57.2792 25.0742 57.3061 25.0631 57.3316 25.0511L57.3642 25.0347L57.39 25.0209C57.4082 25.0103 57.4256 24.9993 57.4422 24.9875C57.4528 24.9802 57.4631 24.9725 57.473 24.965C57.4852 24.9553 57.4969 24.9453 57.5082 24.9351C57.5189 24.9254 57.5291 24.9152 57.5388 24.9049C57.6096 24.8299 57.6628 24.7475 57.6931 24.6529C57.7124 24.5967 57.7257 24.5405 57.7332 24.4833C57.7384 24.4438 57.741 24.4036 57.741 24.3629C57.741 24.3415 57.7402 24.3204 57.7388 24.2993C57.7376 24.2808 57.7358 24.2627 57.7336 24.2446C57.7266 24.1871 57.7146 24.1312 57.698 24.0758C57.6702 23.9838 57.6222 23.9015 57.554 23.8315C57.4859 23.7614 57.3951 23.7043 57.2814 23.6616C57.1676 23.6194 57.0264 23.5968 56.8524 23.5968H56.4837V22.9303ZM56.774 24.7825H56.4837V23.9686V23.9633H56.7792C56.8163 23.9633 56.8515 23.9645 56.8847 23.9671C56.9357 23.9712 56.9819 23.9785 57.0233 23.9888C57.0545 23.9964 57.0829 24.0061 57.1087 24.0172C57.1414 24.0316 57.1695 24.0486 57.1933 24.0684C57.22 24.0919 57.2426 24.1186 57.2608 24.149C57.2809 24.1824 57.2958 24.2202 57.305 24.2621C57.3128 24.297 57.3167 24.3348 57.3167 24.3755C57.3167 24.5079 57.2766 24.6075 57.1956 24.6776C57.1603 24.708 57.1135 24.7321 57.0554 24.7493C56.9804 24.7713 56.8864 24.7825 56.774 24.7825ZM61.2072 24.8319C61.1113 24.9544 60.985 25.047 60.8335 25.1094C60.678 25.1723 60.5117 25.2046 60.3438 25.204C60.177 25.2063 60.011 25.1785 59.854 25.122C59.713 25.0707 59.584 24.9908 59.4754 24.8873C59.4342 24.8475 59.3964 24.8044 59.3622 24.7587L59.3345 24.7198C59.3246 24.7051 59.3151 24.6902 59.3059 24.6749L59.2931 24.6535C59.2848 24.6392 59.2769 24.6245 59.2692 24.6096C59.259 24.5899 59.2493 24.5701 59.2402 24.5495L59.2279 24.52C59.1678 24.3685 59.1378 24.2065 59.1398 24.0432C59.1398 23.8812 59.1673 23.7313 59.2254 23.5892C59.281 23.4468 59.3617 23.3246 59.4628 23.2221C59.5638 23.1172 59.6848 23.0375 59.8213 22.9751C59.9652 22.9118 60.1211 22.8802 60.2782 22.8825C60.4572 22.8825 60.624 22.9051 60.7755 22.9499C60.9272 22.9947 61.0558 23.0697 61.1617 23.1749L60.9775 23.4869C60.9402 23.4529 60.9 23.4225 60.8575 23.3958C60.8366 23.3826 60.8151 23.3703 60.793 23.3589C60.7757 23.3501 60.7581 23.3419 60.74 23.334L60.7064 23.3202L60.6693 23.3068C60.5609 23.2719 60.4476 23.2543 60.3337 23.2546C60.2931 23.2546 60.2533 23.2578 60.2141 23.264C60.1559 23.2733 60.0992 23.2898 60.0432 23.312C59.9514 23.3489 59.8675 23.4034 59.7961 23.472C59.7727 23.4948 59.7508 23.5192 59.7308 23.5446L59.7133 23.5678C59.6786 23.6156 59.6497 23.6671 59.6268 23.7216C59.584 23.8186 59.5638 23.9261 59.5638 24.0459C59.5638 24.1681 59.5864 24.278 59.6293 24.3729C59.6722 24.4701 59.7304 24.5527 59.8036 24.6225C59.8767 24.6925 59.9625 24.7447 60.061 24.7798C60.1597 24.8146 60.2631 24.8349 60.3741 24.8349C60.4562 24.8349 60.5327 24.8249 60.6042 24.8053C60.6223 24.8003 60.64 24.7947 60.6575 24.7886C60.6859 24.7789 60.7134 24.7675 60.7402 24.7546C60.8451 24.7039 60.9394 24.6336 61.018 24.5477L61.2072 24.8319ZM61.4142 22.93H63.4591V23.3246H62.6359V25.1516H62.2371V23.3246H61.4142V22.93ZM63.8931 22.9306H64.2922V23.1925C64.3678 23.1023 64.4763 23.0305 64.6153 22.9704C64.7542 22.9104 64.9005 22.8805 65.0568 22.8805C65.0821 22.8799 65.1073 22.8805 65.1325 22.882C65.1834 22.8849 65.2338 22.8913 65.2835 22.9012C65.3536 22.9154 65.4223 22.9367 65.4885 22.9652C65.6131 23.0173 65.7247 23.0967 65.8143 23.1975C65.9058 23.3009 65.9762 23.4213 66.0214 23.5517C66.0447 23.6184 66.0626 23.6885 66.0749 23.762C66.0879 23.84 66.0945 23.9214 66.0945 24.0064C66.0945 24.1733 66.0667 24.331 66.0112 24.4778C65.9557 24.6251 65.8772 24.7499 65.7738 24.8577C65.6687 24.965 65.5436 25.0505 65.4054 25.1097C65.2614 25.1695 65.1024 25.2016 64.9257 25.2016C64.8069 25.2016 64.6909 25.1893 64.5799 25.1645C64.4689 25.1396 64.3729 25.1021 64.2922 25.0497V26.1403H63.8931V22.9306ZM64.9411 23.2522C64.8072 23.2522 64.6836 23.2824 64.5699 23.3425C64.4565 23.4022 64.3629 23.4747 64.2924 23.5593V24.6603C64.3828 24.7209 64.4826 24.7666 64.5876 24.7954C64.6836 24.8202 64.7848 24.8325 64.8931 24.8325C65.0048 24.8346 65.1157 24.8132 65.2188 24.7702C65.3112 24.7324 65.3948 24.6752 65.4636 24.6028C65.5321 24.5296 65.5848 24.4429 65.6178 24.3482C65.653 24.2484 65.6733 24.1412 65.6733 24.0213C65.6733 23.9961 65.6726 23.9712 65.671 23.9469L65.6676 23.9073L65.6644 23.8792L65.66 23.8502L65.6549 23.8223L65.6479 23.7899C65.6416 23.7632 65.6341 23.7371 65.6253 23.7116C65.595 23.617 65.5471 23.537 65.4841 23.467C65.4207 23.3973 65.3451 23.3448 65.2543 23.3073C65.1607 23.2698 65.0571 23.2522 64.9411 23.2522ZM68.7552 22.9303H69.1542V25.1519H68.7552V22.9303ZM67.0666 22.9303H66.6676H66.6652V25.1542H67.3896C67.5664 25.1542 67.7127 25.1293 67.834 25.0848C67.9552 25.0396 68.0511 24.9799 68.1217 24.9049C68.1925 24.8299 68.2455 24.7475 68.2758 24.6526C68.3085 24.558 68.3236 24.4628 68.3236 24.3629C68.3236 24.263 68.3085 24.1684 68.2807 24.0758C68.2531 23.9838 68.2051 23.9012 68.137 23.8315C68.0689 23.7614 67.978 23.704 67.8642 23.6616C67.7505 23.6194 67.6093 23.5968 67.435 23.5968H67.0666V22.9303ZM67.3597 24.7825H67.0692V23.9686V23.9633H67.3647C67.5564 23.9633 67.6953 23.9985 67.7788 24.0684C67.8595 24.1385 67.9022 24.2404 67.9022 24.3755C67.9022 24.5079 67.8619 24.6075 67.7811 24.6773C67.7004 24.7475 67.5589 24.7825 67.3597 24.7825ZM71.0679 24.0011L71.9211 25.1519H71.4315L70.7725 24.253L70.1035 25.1519H69.639L70.4871 24.0207L69.6894 22.93H70.1794L70.7877 23.7688L71.406 22.93H71.8707L71.0679 24.0011ZM36.0229 27.8975H34.7986V29.75H34.3996V27.5284H36.4216V29.75H36.0229V27.8975ZM38.686 27.9225H37.8985L37.873 28.2969C37.8556 28.4964 37.8342 28.671 37.8075 28.8216C37.7917 28.9104 37.7741 28.9909 37.7545 29.0633C37.7013 29.2581 37.6357 29.4078 37.5601 29.5127C37.4845 29.6176 37.3959 29.6899 37.2948 29.7251C37.1906 29.7629 37.0803 29.7814 36.9693 29.7799L36.939 29.3952C36.9819 29.3976 37.0323 29.3879 37.0878 29.363C37.1437 29.3381 37.1992 29.283 37.2519 29.201C37.3051 29.1157 37.3531 28.9959 37.3959 28.8412C37.4388 28.6839 37.4668 28.4794 37.4817 28.2219L37.5223 27.5305H39.085V29.7523H38.686V27.9225ZM39.8168 27.6805C39.9153 27.618 40.0315 27.5683 40.1604 27.5334C40.2919 27.4971 40.4277 27.4786 40.5642 27.4786C40.8822 27.4786 41.1069 27.558 41.2332 27.7156C41.3618 27.873 41.4252 28.0976 41.4252 28.3871V29.75H41.0514V29.4629C40.9856 29.5479 40.8948 29.6229 40.7814 29.6876C40.6677 29.7526 40.519 29.7852 40.3321 29.7852C40.1251 29.7852 39.9582 29.7251 39.8322 29.6053C39.7629 29.5399 39.7129 29.4594 39.6815 29.3642C39.6557 29.2853 39.6428 29.1969 39.6428 29.0987C39.6427 29.083 39.643 29.0671 39.6438 29.0513C39.6458 29.0164 39.6503 28.9822 39.6575 28.9485C39.6684 28.896 39.6854 28.845 39.7083 28.7964C39.7499 28.7103 39.8103 28.6344 39.885 28.5746C39.9248 28.5418 39.9698 28.5136 40.0196 28.49C40.0615 28.47 40.1067 28.4533 40.1552 28.4396C40.2612 28.4094 40.3725 28.3921 40.491 28.3921C40.5877 28.3933 40.6839 28.4032 40.7787 28.422C40.815 28.4284 40.8506 28.4378 40.8852 28.4498C40.9441 28.4703 41 28.4987 41.0514 28.5342C41.0514 28.4319 41.0463 28.3373 41.0337 28.2497C41.0269 28.2034 41.0174 28.1606 41.0047 28.1217C40.9981 28.1017 40.9908 28.0827 40.9826 28.0649C40.9765 28.052 40.9701 28.0394 40.9632 28.0276C40.9278 27.9676 40.8774 27.9178 40.809 27.8852C40.7646 27.8627 40.7119 27.8471 40.6496 27.8393L40.6191 27.8361C40.5945 27.834 40.5686 27.8328 40.5414 27.8328C40.4028 27.8328 40.2864 27.8481 40.1955 27.8803C40.1691 27.8896 40.1428 27.8996 40.1164 27.9099C40.0521 27.9351 39.9876 27.9632 39.923 27.9951L39.8168 27.6805ZM40.4736 29.428C40.5651 29.428 40.6458 29.4163 40.7155 29.3917C40.7574 29.3768 40.7954 29.3574 40.8294 29.3328C40.9114 29.2786 40.9861 29.2138 41.0517 29.1406V28.8585C40.9128 28.7589 40.7435 28.7117 40.5468 28.7117C40.5238 28.7117 40.5008 28.7126 40.4779 28.7147C40.4416 28.7182 40.4056 28.7246 40.3701 28.7337C40.3118 28.7489 40.2591 28.7712 40.2162 28.8014C40.1732 28.8312 40.1352 28.8688 40.1076 28.9162C40.0796 28.9636 40.067 29.0161 40.067 29.0785C40.067 29.1831 40.1025 29.2681 40.1732 29.3328C40.2439 29.3955 40.3422 29.428 40.4736 29.428ZM41.8189 27.5284H43.8637V27.9227H43.0405V29.75H42.6418V27.923H41.8189V27.5284ZM45.9071 29.6536C45.8508 29.6829 45.7909 29.7076 45.7269 29.7274C45.5755 29.7749 45.424 29.8001 45.2749 29.8001C45.1055 29.8022 44.9372 29.7743 44.7777 29.7175C44.6287 29.6627 44.5023 29.5851 44.3988 29.4828C44.2953 29.3806 44.2122 29.2581 44.1564 29.116C44.1009 28.9734 44.0706 28.814 44.0706 28.6391C44.0693 28.4841 44.0958 28.3303 44.149 28.1847C44.1717 28.1211 44.2004 28.0602 44.2347 28.0024C44.2739 27.9362 44.3205 27.8741 44.3737 27.8179C44.4761 27.7119 44.599 27.6278 44.7349 27.5706C44.8786 27.5105 45.0427 27.4784 45.2296 27.4784C45.3686 27.4774 45.5064 27.5029 45.6361 27.5533C45.7599 27.5993 45.8731 27.67 45.969 27.7605C46.0641 27.8519 46.1397 27.9614 46.1914 28.0824C46.2469 28.2072 46.2747 28.3447 46.2747 28.4967C46.2747 28.5993 46.267 28.6868 46.2495 28.7638H44.5228C44.5405 28.9737 44.6184 29.1386 44.7624 29.2558C44.9064 29.373 45.0882 29.4304 45.3078 29.4304C45.4543 29.4304 45.5881 29.4081 45.7065 29.3633C45.8253 29.3182 45.9238 29.2634 45.997 29.1981L46.1181 29.5078C46.054 29.5651 45.984 29.6138 45.9071 29.6536ZM45.2095 27.8478C45.0024 27.8478 44.8383 27.9029 44.7147 28.015C44.5925 28.1252 44.5145 28.276 44.4951 28.4396H45.8583C45.8482 28.2547 45.7876 28.1099 45.6742 28.0051C45.5605 27.9029 45.4066 27.8478 45.2095 27.8478ZM46.9741 27.5284H46.4691L47.2944 28.5993L46.4313 29.75H46.9209L47.7438 28.5995L46.9741 27.5284ZM48.2413 27.5284H47.8422V29.75H48.2413V27.5284ZM48.789 28.5993L49.6674 29.75H49.1728L48.3396 28.5993L49.1145 27.5281H49.6096L48.789 28.5993ZM51.8814 29.5078C51.7704 29.6073 51.6418 29.68 51.4902 29.7274C51.3441 29.7743 51.1918 29.7989 51.0384 29.8001C50.8691 29.8022 50.7006 29.7743 50.5411 29.7175C50.392 29.6627 50.266 29.5851 50.1625 29.4828C50.0589 29.3806 49.9755 29.2581 49.92 29.116C49.8645 28.9734 49.8343 28.814 49.8343 28.6391C49.8327 28.4841 49.8593 28.3303 49.9125 28.1847C49.9611 28.0482 50.0377 27.923 50.1372 27.8179C50.2395 27.7119 50.3624 27.6278 50.4982 27.5706C50.6422 27.5105 50.8063 27.4784 50.9929 27.4784C51.1319 27.4774 51.2697 27.5029 51.3993 27.5533C51.5233 27.5993 51.6365 27.67 51.7326 27.7605C51.8275 27.8519 51.903 27.9614 51.9547 28.0824C52.0105 28.2072 52.038 28.3447 52.038 28.4967C52.038 28.5993 52.0306 28.6868 52.0128 28.7638H50.2861C50.3038 28.9737 50.3821 29.1386 50.5258 29.2558C50.6697 29.373 50.8515 29.4304 51.0711 29.4304C51.2176 29.4304 51.3513 29.4081 51.4701 29.3633C51.5886 29.3182 51.687 29.2634 51.7603 29.1981L51.8814 29.5078ZM50.9731 27.8478C50.7661 27.8478 50.6019 27.9029 50.4781 28.015C50.3558 28.1252 50.2777 28.276 50.2584 28.4396H51.6217C51.6117 28.2547 51.5511 28.1099 51.4374 28.0051C51.3238 27.9029 51.1675 27.8478 50.9731 27.8478ZM53.3798 26.68C53.444 26.748 53.5364 26.782 53.6565 26.782C53.8786 26.782 54.0023 26.6522 54.0201 26.3926H54.3937C54.3937 26.4922 54.3759 26.5821 54.3406 26.6671C54.3055 26.752 54.2548 26.8245 54.1918 26.8842C54.1635 26.91 54.1333 26.934 54.101 26.9556C54.0582 26.9844 54.0114 27.009 53.9596 27.0289C53.9082 27.05 53.8535 27.0646 53.7951 27.0737C53.7503 27.0805 53.7033 27.0837 53.6539 27.0837C53.6063 27.0837 53.5608 27.0811 53.5178 27.0758C53.449 27.0673 53.3858 27.052 53.3284 27.0289C53.2351 26.9917 53.1541 26.9443 53.0911 26.8842C53.053 26.8481 53.0203 26.8071 52.9933 26.7617C52.9756 26.7322 52.9602 26.7005 52.9471 26.6671C52.9288 26.6199 52.9153 26.571 52.9069 26.5198C52.9002 26.479 52.8967 26.4368 52.8967 26.3926H53.2729C53.2827 26.5195 53.3184 26.6152 53.3798 26.68ZM52.9773 29.75H52.5784V27.5281H52.9773V29.1831L54.2749 27.5281H54.6739V29.75H54.2749V28.0948L52.9773 29.75Z" fill="white"/>
</g>
<defs>
<clipPath id="clip0_76_15988">
<rect width="72" height="36" fill="white" transform="translate(0.5)"/>
</clipPath>
</defs>
</svg>
